<svg width="185" height="45" viewBox="0 0 185 45" fill="none" xmlns="http://www.w3.org/2000/svg">
<g clip-path="url(#clip0_1318_7136)">
<mask id="mask0_1318_7136" style="mask-type:luminance" maskUnits="userSpaceOnUse" x="0" y="0" width="185" height="45">
<path d="M184.098 0.662109H0.0981445V44.6621H184.098V0.662109Z" fill="white"/>
</mask>
<g mask="url(#mask0_1318_7136)">
<path d="M21.9157 44.6621C33.9652 44.6621 43.7333 34.8124 43.7333 22.6621C43.7333 10.5118 33.9652 0.662109 21.9157 0.662109C9.86621 0.662109 0.0981445 10.5118 0.0981445 22.6621C0.0981445 34.8124 9.86621 44.6621 21.9157 44.6621Z" fill="url(#paint0_linear_1318_7136)"/>
<path d="M17.7719 19.0312C17.7719 19.0312 14.1743 25.7666 11.6691 30.3635H7.29639L15.5871 14.9604L17.7719 19.0312Z" fill="url(#paint1_linear_1318_7136)"/>
<path d="M13.4084 19.0312C13.4084 19.0312 17.003 25.7666 19.5113 30.3635H23.8748L15.5872 14.9604L13.4084 19.0312Z" fill="white"/>
<path d="M24.7505 30.3635V14.9604H36.532L35.7508 18.262H28.4763V21.5635H35.7661V24.862H28.4763V30.3635H24.7505Z" fill="white"/>
<mask id="mask1_1318_7136" style="mask-type:luminance" maskUnits="userSpaceOnUse" x="59" y="4" width="126" height="36">
<path d="M184.098 4.66211H59.9058V39.1236H184.098V4.66211Z" fill="white"/>
</mask>
<g mask="url(#mask1_1318_7136)">
<path d="M60.3116 18.4497C60.2569 18.454 60.2021 18.4433 60.1529 18.4189C60.1029 18.3971 60.0589 18.3633 60.0248 18.3204C59.9883 18.2839 59.9583 18.2412 59.9363 18.1943C59.9171 18.1452 59.9068 18.0931 59.9058 18.0404C59.9027 17.9841 59.9027 17.9276 59.9058 17.8712L64.5042 5.37582C64.5427 5.2345 64.6237 5.10871 64.7361 5.01582C64.8677 4.90129 65.0388 4.84378 65.2122 4.85582H67.6807C67.8536 4.84789 68.0232 4.9049 68.1568 5.01582C68.2639 5.11335 68.3439 5.23747 68.3887 5.37582L72.9658 17.8712C72.9749 17.9272 72.9749 17.9844 72.9658 18.0404C72.9633 18.1457 72.9207 18.246 72.8468 18.3204C72.8112 18.3617 72.7676 18.3953 72.7186 18.4189C72.6683 18.4397 72.6143 18.4502 72.5599 18.4497H70.5857C70.5085 18.4583 70.4304 18.4499 70.3568 18.425C70.2832 18.4017 70.2148 18.3641 70.1554 18.3143C70.0835 18.244 70.0273 18.159 69.9907 18.065L69.1942 15.8866H63.7322L62.9358 18.065C62.8995 18.1615 62.8397 18.2472 62.7619 18.3143C62.7048 18.364 62.6384 18.4017 62.5666 18.425C62.4941 18.4501 62.4169 18.4585 62.3408 18.4497H60.3116ZM64.4401 13.3789H68.407L66.4266 7.75428L64.4401 13.3789Z" fill="white"/>
<path d="M78.7299 18.6436C77.8792 18.6624 77.0355 18.4834 76.2644 18.1205C75.5657 17.7838 74.9794 17.2492 74.577 16.5821C74.1517 15.8495 73.9215 15.0185 73.9087 14.1698V12.5759C73.9201 11.7288 74.1482 10.8989 74.5708 10.1667C74.9792 9.51855 75.5639 9.00263 76.2552 8.68054C77.0307 8.32086 77.8765 8.14207 78.7299 8.15746C79.478 8.13966 80.2229 8.26171 80.9269 8.51746C81.4722 8.72132 81.9743 9.02719 82.4069 9.419C82.7614 9.74168 83.0523 10.129 83.2643 10.5605C83.4326 10.8826 83.5363 11.235 83.5695 11.5975C83.5766 11.6591 83.5682 11.7215 83.545 11.779C83.5255 11.8391 83.4896 11.8925 83.4413 11.9328C83.3985 11.9792 83.3465 12.0159 83.2887 12.0405C83.2319 12.0652 83.1706 12.0777 83.1087 12.0775H81.0459C80.9931 12.0827 80.9398 12.0753 80.8903 12.0559C80.8388 12.0393 80.7918 12.0108 80.753 11.9728C80.6697 11.8826 80.6026 11.7785 80.5547 11.6652C80.4246 11.2789 80.1834 10.9405 79.862 10.6928C79.5481 10.4845 79.1789 10.3772 78.8032 10.3852C78.5445 10.3709 78.286 10.415 78.0464 10.5144C77.8072 10.6138 77.5926 10.7651 77.4178 10.9575C77.0542 11.4529 76.869 12.0585 76.893 12.6744V14.0775C76.862 14.7104 77.0473 15.3349 77.4178 15.8467C77.5893 16.03 77.7973 16.1747 78.0281 16.2713C78.263 16.364 78.5146 16.406 78.7665 16.3944C79.1456 16.4126 79.521 16.3115 79.8406 16.1052C80.1644 15.8475 80.408 15.5014 80.5425 15.1082C80.5802 14.9919 80.6451 14.8864 80.7316 14.8005C80.8157 14.7265 80.9254 14.689 81.0368 14.6959H83.0965C83.1584 14.6957 83.2196 14.7082 83.2765 14.7328C83.3343 14.7575 83.3863 14.7942 83.4291 14.8405C83.4765 14.8804 83.5124 14.9325 83.5328 14.9913C83.5561 15.0498 83.5645 15.1133 83.5573 15.1759C83.5366 15.4514 83.4748 15.7221 83.3742 15.979C83.2484 16.3107 83.0746 16.6217 82.8585 16.9021C82.5961 17.2314 82.2878 17.5205 81.9431 17.7605C81.528 18.0458 81.0707 18.2628 80.5882 18.4036C79.9835 18.5737 79.3576 18.6546 78.7299 18.6436Z" fill="white"/>
<path d="M89.8858 18.6436C89.035 18.6626 88.1913 18.4836 87.4203 18.1205C86.7209 17.7848 86.1343 17.25 85.7328 16.5821C85.3032 15.8514 85.0727 15.0192 85.0646 14.1698V12.5759C85.0699 11.7283 85.2973 10.8972 85.7237 10.1667C86.1304 9.51945 86.7129 9.00361 87.4019 8.68054C88.1807 8.32111 89.0295 8.14237 89.8858 8.15746C90.6339 8.13966 91.3788 8.26171 92.0828 8.51746C92.6277 8.72205 93.1297 9.02784 93.5627 9.419C93.9168 9.74065 94.2059 10.1283 94.4141 10.5605C94.5824 10.8826 94.6861 11.235 94.7192 11.5975C94.7249 11.6591 94.7166 11.7212 94.6948 11.779C94.6742 11.8386 94.6384 11.8916 94.5911 11.9328C94.5483 11.9792 94.4963 12.0159 94.4385 12.0405C94.3815 12.0648 94.3203 12.0774 94.2585 12.0775H92.1957C92.1419 12.0825 92.0876 12.0751 92.037 12.0559C91.9868 12.0385 91.941 12.0101 91.9028 11.9728C91.8325 11.8789 91.776 11.7753 91.735 11.6652C91.6053 11.2787 91.3588 10.943 91.0301 10.7052C90.7168 10.4954 90.3471 10.388 89.9712 10.3975C89.7054 10.3759 89.4382 10.4159 89.1901 10.5144C88.9413 10.6133 88.7188 10.7692 88.5401 10.9698C88.1783 11.4654 87.9982 12.0722 88.0305 12.6867V14.0775C88.0122 14.705 88.2059 15.3201 88.5798 15.8221C88.7521 16.007 88.9623 16.1518 89.1957 16.2464C89.4292 16.341 89.6803 16.3831 89.9316 16.3698C90.3135 16.3879 90.6918 16.2869 91.0148 16.0805C91.3416 15.8392 91.5909 15.5065 91.7319 15.1236C91.7749 15.0077 91.8426 14.9026 91.9302 14.8159C92.0143 14.7419 92.124 14.7043 92.2354 14.7113H94.2981C94.36 14.7114 94.4212 14.7239 94.4782 14.7482C94.536 14.7729 94.588 14.8096 94.6307 14.8559C94.6773 14.8967 94.7129 14.9485 94.7345 15.0067C94.7562 15.0656 94.7645 15.1287 94.7589 15.1913C94.7382 15.4668 94.6765 15.7375 94.5758 15.9944C94.4489 16.3261 94.2741 16.6372 94.0571 16.9175C93.7947 17.2468 93.4864 17.5359 93.1417 17.7759C92.7277 18.0611 92.2714 18.2782 91.7899 18.419C91.1695 18.5874 90.528 18.663 89.8858 18.6436Z" fill="white"/>
<path d="M100.27 18.6437C99.5802 18.6588 98.9 18.4809 98.3046 18.1298C97.7197 17.7806 97.2553 17.2586 96.9742 16.6344C96.635 15.8777 96.4742 15.052 96.5043 14.2221V8.84059C96.4999 8.78048 96.5061 8.72005 96.5226 8.66213C96.5469 8.60105 96.5832 8.54557 96.6294 8.49906C96.6721 8.45561 96.723 8.42111 96.7789 8.39752C96.8345 8.37248 96.8951 8.36089 96.9559 8.36367H98.9912C99.0547 8.35982 99.1183 8.37033 99.1773 8.39444C99.2374 8.41824 99.2915 8.455 99.336 8.50213C99.3806 8.54817 99.4158 8.60251 99.4398 8.66213C99.462 8.72317 99.4723 8.78793 99.4703 8.8529V14.1421C99.4703 15.578 100.099 16.296 101.356 16.296C101.622 16.3149 101.89 16.2748 102.139 16.1786C102.388 16.0824 102.614 15.9324 102.799 15.7391C103.178 15.2943 103.37 14.718 103.333 14.1329V8.84059C103.329 8.77575 103.338 8.71066 103.361 8.64983C103.385 8.59021 103.42 8.53586 103.465 8.48983C103.509 8.44269 103.563 8.40594 103.623 8.38213C103.682 8.35802 103.746 8.34751 103.809 8.35136H105.845C105.907 8.34852 105.97 8.36009 106.028 8.38521C106.085 8.40837 106.137 8.4429 106.18 8.48675C106.228 8.53697 106.264 8.59674 106.287 8.66213C106.311 8.72276 106.321 8.78784 106.318 8.8529V17.9667C106.32 18.0307 106.309 18.0945 106.287 18.1544C106.265 18.2137 106.232 18.2681 106.189 18.3144C106.146 18.3589 106.094 18.3944 106.037 18.4191C105.979 18.4416 105.916 18.4521 105.854 18.4498H103.968C103.904 18.4534 103.839 18.4429 103.779 18.4191C103.718 18.3968 103.663 18.3611 103.617 18.3144C103.575 18.2674 103.54 18.2133 103.516 18.1544C103.493 18.0947 103.482 18.0309 103.483 17.9667V17.2037C103.156 17.6698 102.711 18.0394 102.195 18.2744C101.588 18.5389 100.931 18.665 100.27 18.6437Z" fill="white"/>
<path d="M109.235 18.4497C109.174 18.452 109.114 18.4416 109.058 18.419C109.002 18.3942 108.951 18.3587 108.908 18.3143C108.866 18.2674 108.832 18.2132 108.808 18.1543C108.784 18.0946 108.773 18.0308 108.774 17.9667V8.8405C108.769 8.74437 108.794 8.64906 108.845 8.56756C108.895 8.48606 108.97 8.42235 109.058 8.38511C109.113 8.36029 109.174 8.34871 109.235 8.35127H110.986C111.11 8.35126 111.23 8.3998 111.319 8.48665C111.367 8.53163 111.404 8.58657 111.429 8.64766C111.454 8.70876 111.465 8.77456 111.462 8.8405V9.48357C111.745 9.09927 112.11 8.78384 112.53 8.5605C113.02 8.29844 113.565 8.15814 114.12 8.15127C114.747 8.07757 115.381 8.2046 115.933 8.51439C116.484 8.82418 116.925 9.30102 117.193 9.87742C117.504 9.35988 117.947 8.93512 118.474 8.64665C119.034 8.33211 119.665 8.16887 120.305 8.1728C120.94 8.16302 121.566 8.32109 122.121 8.63127C122.675 8.95745 123.118 9.44423 123.393 10.0282C123.738 10.7835 123.901 11.6099 123.869 12.4405V17.979C123.871 18.0419 123.861 18.1047 123.839 18.1636C123.816 18.2236 123.78 18.2781 123.735 18.3236C123.694 18.3696 123.643 18.4054 123.586 18.4282C123.529 18.4508 123.469 18.4613 123.409 18.459H121.498C121.439 18.4646 121.38 18.4562 121.325 18.4343C121.268 18.4134 121.216 18.3809 121.172 18.339C121.129 18.2931 121.095 18.24 121.071 18.182C121.048 18.1223 121.037 18.0585 121.038 17.9943V12.5851C121.06 12.1543 120.982 11.7243 120.809 11.3297C120.682 11.0515 120.467 10.8232 120.199 10.6805C119.952 10.5551 119.681 10.4887 119.405 10.4867C119.128 10.4854 118.855 10.5519 118.609 10.6805C118.343 10.8274 118.13 11.0544 117.998 11.3297C117.822 11.7235 117.74 12.1534 117.757 12.5851V17.9667C117.76 18.031 117.749 18.0951 117.724 18.1543C117.701 18.2138 117.667 18.2682 117.623 18.3143C117.577 18.36 117.522 18.3956 117.461 18.419C117.401 18.443 117.337 18.4535 117.272 18.4497H115.396C115.332 18.452 115.269 18.4416 115.209 18.419C115.152 18.3943 115.099 18.3588 115.054 18.3143C115.008 18.2697 114.972 18.2149 114.95 18.1543C114.927 18.0946 114.915 18.0308 114.917 17.9667V12.5851C114.936 12.1546 114.857 11.7253 114.688 11.3297C114.559 11.0525 114.345 10.8247 114.077 10.6805C113.83 10.5551 113.558 10.4888 113.281 10.4867C113.002 10.4893 112.729 10.5612 112.485 10.6959C112.215 10.8411 111.996 11.0653 111.856 11.339C111.681 11.7243 111.603 12.1468 111.627 12.5697V17.9667C111.627 18.0307 111.616 18.0942 111.594 18.1543C111.57 18.214 111.534 18.2683 111.49 18.3143C111.449 18.3602 111.398 18.3963 111.342 18.4197C111.285 18.4432 111.224 18.4534 111.163 18.4497H109.235Z" fill="white"/>
<path d="M129.923 18.6435C129.232 18.6582 128.55 18.4804 127.952 18.1297C127.37 17.778 126.907 17.2566 126.625 16.6343C126.289 15.8766 126.128 15.0516 126.155 14.222V8.84043C126.149 8.7457 126.172 8.6514 126.22 8.57007C126.269 8.48873 126.341 8.42419 126.426 8.38504C126.482 8.36001 126.543 8.34842 126.603 8.3512H128.642C128.705 8.34784 128.769 8.35834 128.828 8.38197C128.887 8.40724 128.941 8.44381 128.987 8.48966C129.031 8.53504 129.066 8.58963 129.087 8.64966C129.111 8.71029 129.121 8.77536 129.118 8.84043V14.142C129.118 15.5779 129.746 16.2958 131.004 16.2958C131.269 16.3142 131.536 16.274 131.785 16.1778C132.034 16.0816 132.258 15.9318 132.444 15.7389C132.819 15.2922 133.007 14.7165 132.969 14.1327V8.84043C132.967 8.77519 132.978 8.71028 133.002 8.64951C133.025 8.58874 133.061 8.53335 133.106 8.48658C133.152 8.44092 133.207 8.40531 133.268 8.38197C133.324 8.36041 133.384 8.35097 133.445 8.35427H135.48C135.541 8.3515 135.601 8.36309 135.657 8.38812C135.745 8.42535 135.82 8.48907 135.87 8.57056C135.921 8.65206 135.946 8.74738 135.941 8.8435V17.9666C135.944 18.0309 135.932 18.095 135.907 18.1543C135.884 18.2138 135.85 18.2681 135.807 18.3143C135.764 18.3586 135.713 18.3942 135.657 18.4189C135.601 18.4415 135.541 18.452 135.48 18.4497H133.57C133.505 18.4533 133.441 18.4428 133.381 18.4189C133.32 18.3955 133.265 18.3599 133.219 18.3143C133.176 18.2673 133.142 18.2131 133.118 18.1543C133.095 18.0946 133.083 18.0308 133.085 17.9666V17.2035C132.759 17.6685 132.317 18.038 131.803 18.2743C131.21 18.5311 130.569 18.657 129.923 18.6435Z" fill="white"/>
<path d="M138.833 18.4498C138.769 18.4534 138.704 18.4429 138.644 18.419C138.583 18.3968 138.528 18.3611 138.483 18.3144C138.44 18.2674 138.406 18.2133 138.382 18.1544C138.358 18.0947 138.347 18.0309 138.348 17.9667V5.14519C138.347 5.081 138.358 5.0172 138.382 4.9575C138.406 4.89865 138.44 4.84449 138.483 4.7975C138.531 4.75424 138.585 4.71893 138.644 4.69289C138.705 4.67051 138.769 4.66007 138.833 4.66212H140.768C140.828 4.66261 140.886 4.67408 140.942 4.69596C140.998 4.71878 141.049 4.75339 141.091 4.7975C141.138 4.84289 141.174 4.89735 141.198 4.9575C141.221 5.01741 141.231 5.08121 141.229 5.14519V18.0006C141.225 18.0612 141.211 18.1207 141.186 18.176C141.159 18.231 141.122 18.2802 141.076 18.3206C141.036 18.3668 140.986 18.4027 140.93 18.4252C140.873 18.4485 140.811 18.46 140.75 18.459L138.833 18.4498Z" fill="white"/>
<path d="M146.584 18.6435C145.952 18.6556 145.325 18.5209 144.753 18.2497C144.234 18.0087 143.784 17.638 143.447 17.1727C143.135 16.7286 142.968 16.1971 142.971 15.6527C142.963 15.2274 143.062 14.807 143.258 14.4305C143.455 14.054 143.742 13.7335 144.094 13.4989C144.968 12.9149 145.965 12.5441 147.005 12.4158L149.526 12.0466V11.6773C149.556 11.2577 149.432 10.8415 149.178 10.5081C149.017 10.3563 148.825 10.2409 148.616 10.1697C148.408 10.0988 148.188 10.0746 147.969 10.0989C147.613 10.08 147.259 10.1666 146.95 10.3481C146.69 10.5066 146.479 10.7345 146.34 11.0066C146.296 11.0858 146.232 11.1517 146.154 11.1973C146.075 11.2427 145.985 11.2661 145.894 11.265H144.064C144.002 11.2681 143.941 11.2587 143.884 11.2373C143.826 11.2131 143.773 11.1787 143.728 11.1358C143.694 11.0951 143.668 11.0481 143.652 10.9973C143.635 10.9458 143.629 10.8914 143.633 10.8373C143.645 10.5513 143.734 10.2738 143.89 10.0343C144.099 9.69412 144.368 9.39495 144.683 9.15119C145.084 8.83565 145.533 8.58828 146.013 8.41889C146.653 8.21249 147.322 8.11474 147.994 8.12966C148.697 8.1149 149.399 8.21251 150.072 8.41889C150.589 8.57362 151.062 8.84872 151.454 9.22196C151.81 9.56508 152.082 9.98623 152.25 10.4527C152.419 10.9295 152.503 11.4327 152.498 11.9389V17.9389C152.501 18.0029 152.491 18.067 152.467 18.1266C152.445 18.1859 152.412 18.2403 152.369 18.2866C152.324 18.3315 152.27 18.367 152.211 18.3912C152.151 18.4151 152.086 18.4256 152.022 18.422H150.136C150.076 18.4358 150.013 18.4358 149.953 18.422C149.894 18.4063 149.838 18.3779 149.791 18.3389C149.749 18.293 149.714 18.2399 149.69 18.182C149.667 18.1222 149.656 18.0584 149.657 17.9943V17.2527C149.48 17.5183 149.26 17.7523 149.007 17.945C148.7 18.1711 148.359 18.3447 147.997 18.4589C147.538 18.5951 147.062 18.6574 146.584 18.6435ZM147.38 16.625C147.776 16.6351 148.167 16.5407 148.516 16.3512C148.858 16.1745 149.137 15.8935 149.312 15.5481C149.517 15.1069 149.615 14.6228 149.599 14.1358V13.8066L147.817 14.0958C147.276 14.1518 146.755 14.3295 146.291 14.6158C146.145 14.7068 146.024 14.8339 145.94 14.985C145.855 15.1351 145.809 15.3045 145.806 15.4773C145.803 15.7086 145.882 15.9332 146.029 16.1112C146.182 16.3014 146.387 16.4434 146.618 16.5204C146.851 16.5966 147.096 16.632 147.341 16.625H147.38Z" fill="white"/>
<path d="M159.522 18.4498C158.822 18.4694 158.127 18.335 157.484 18.056C156.935 17.801 156.487 17.3676 156.211 16.8252C155.896 16.1728 155.745 15.452 155.772 14.7267V10.6406H154.277C154.213 10.6439 154.15 10.6345 154.091 10.6129C154.03 10.5887 153.975 10.5544 153.926 10.5113C153.837 10.4158 153.788 10.2887 153.792 10.1575V8.84058C153.788 8.70941 153.837 8.58227 153.926 8.48673C153.973 8.4424 154.028 8.40696 154.088 8.38212C154.148 8.35824 154.212 8.34774 154.277 8.35135H155.772V5.14519C155.772 5.0808 155.784 5.017 155.809 4.9575C155.833 4.89735 155.869 4.84289 155.915 4.7975C156.008 4.70822 156.132 4.65954 156.26 4.66212H158.137C158.201 4.66007 158.265 4.67051 158.326 4.69289C158.385 4.71893 158.44 4.75424 158.488 4.7975C158.53 4.84449 158.564 4.89865 158.588 4.9575C158.612 5.0172 158.623 5.081 158.622 5.14519V8.35443H161.008C161.069 8.35414 161.129 8.36672 161.185 8.39135C161.242 8.41346 161.293 8.44817 161.335 8.49289C161.423 8.58766 161.471 8.71354 161.469 8.84366V10.1544C161.472 10.2856 161.424 10.4127 161.335 10.5083C161.292 10.5511 161.241 10.5847 161.185 10.6067C161.128 10.6276 161.068 10.638 161.008 10.6375H158.622V14.4898C158.6 14.8926 158.691 15.2935 158.884 15.6467C158.985 15.7908 159.122 15.9055 159.281 15.979C159.44 16.0538 159.616 16.0826 159.791 16.0621H161.213C161.335 16.0629 161.452 16.1126 161.539 16.2002C161.625 16.2878 161.673 16.4063 161.673 16.5298V17.9667C161.675 18.0309 161.663 18.0947 161.64 18.1544C161.616 18.2133 161.582 18.2674 161.539 18.3144C161.496 18.3581 161.445 18.3936 161.39 18.419C161.333 18.4416 161.273 18.4521 161.213 18.4498H159.522Z" fill="white"/>
<path d="M167.794 18.6435C166.51 18.7156 165.248 18.2733 164.285 17.4128C163.827 16.9335 163.469 16.3662 163.232 15.7446C162.996 15.1229 162.886 14.4597 162.909 13.7943V12.9851C162.935 12.0886 163.164 11.2099 163.577 10.4158C163.96 9.70606 164.546 9.12914 165.259 8.76044C166.037 8.36647 166.899 8.17001 167.77 8.18814C168.717 8.15365 169.655 8.3882 170.477 8.86506C171.179 9.28677 171.741 9.91027 172.091 10.6558C172.47 11.4869 172.658 12.3936 172.64 13.3081V13.7481C172.642 13.8097 172.631 13.871 172.607 13.9278C172.583 13.9846 172.548 14.0356 172.503 14.0774C172.46 14.1228 172.408 14.1585 172.35 14.182C172.293 14.2053 172.232 14.2168 172.17 14.2158H165.884V14.3758C165.888 14.7655 165.969 15.1505 166.122 15.5081C166.258 15.8295 166.479 16.1072 166.76 16.3112C167.045 16.5221 167.392 16.6304 167.746 16.6189C168.018 16.6316 168.29 16.5844 168.542 16.4804C168.731 16.4048 168.904 16.293 169.052 16.1512C169.164 16.0522 169.266 15.9419 169.357 15.822C169.433 15.7245 169.527 15.6429 169.634 15.582C169.741 15.5442 169.854 15.5275 169.967 15.5328H171.966C172.077 15.5292 172.185 15.5663 172.271 15.6374C172.314 15.6745 172.346 15.7222 172.365 15.7758C172.387 15.8284 172.393 15.886 172.384 15.942C172.344 16.2174 172.24 16.4791 172.079 16.7051C171.839 17.0507 171.543 17.3525 171.203 17.5974C170.767 17.9173 170.283 18.1645 169.769 18.3297C169.131 18.5393 168.465 18.6452 167.794 18.6435ZM165.893 12.4466H169.656C169.666 12.0322 169.593 11.6199 169.442 11.2343C169.305 10.9091 169.079 10.6304 168.789 10.4312C168.483 10.2422 168.131 10.1422 167.772 10.1422C167.412 10.1422 167.06 10.2422 166.754 10.4312C166.465 10.6321 166.236 10.9102 166.095 11.2343C165.949 11.6212 165.881 12.0331 165.893 12.4466Z" fill="white"/>
<path d="M178.3 18.6436C177.713 18.6602 177.128 18.5555 176.582 18.3359C176.093 18.1347 175.659 17.8182 175.316 17.4128C174.955 16.9895 174.684 16.4949 174.523 15.9605C174.334 15.3529 174.224 14.7229 174.196 14.0867V12.7451C174.205 12.1177 174.308 11.4953 174.501 10.899C174.667 10.3846 174.925 9.90563 175.264 9.48667C175.609 9.07503 176.042 8.74781 176.531 8.52975C177.077 8.29671 177.665 8.18142 178.258 8.19129C178.845 8.1781 179.428 8.29358 179.967 8.52975C180.412 8.742 180.81 9.0423 181.138 9.41283V5.14514C181.135 5.08084 181.147 5.01672 181.172 4.95744C181.194 4.89741 181.228 4.84283 181.273 4.79744C181.32 4.75177 181.376 4.71619 181.437 4.69283C181.498 4.66898 181.564 4.65849 181.63 4.66206H183.613C183.674 4.66255 183.735 4.67401 183.793 4.6959C183.851 4.71848 183.904 4.75359 183.947 4.79877C183.99 4.84394 184.023 4.8981 184.043 4.95744C184.065 5.01741 184.076 5.08117 184.074 5.14514V18.0005C184.077 18.1278 184.031 18.2515 183.946 18.3451C183.903 18.3906 183.851 18.4262 183.793 18.4498C183.736 18.4736 183.674 18.4841 183.613 18.4805H181.767C181.705 18.4826 181.644 18.4721 181.587 18.4498C181.531 18.4261 181.481 18.3904 181.44 18.3451C181.402 18.3028 181.372 18.2538 181.352 18.2005C181.33 18.1415 181.319 18.079 181.318 18.0159V17.3421C180.981 17.7416 180.566 18.0664 180.098 18.2959C179.534 18.5534 178.918 18.6725 178.3 18.6436ZM179.185 16.3113C179.592 16.3331 179.995 16.2172 180.33 15.9821C180.608 15.777 180.825 15.4993 180.958 15.179C181.095 14.8338 181.17 14.4673 181.181 14.0959C181.181 13.8467 181.221 13.6036 181.221 13.3544C181.22 13.1159 181.206 12.8776 181.181 12.6405C181.171 12.2879 181.092 11.9408 180.949 11.619C180.809 11.2972 180.586 11.0197 180.302 10.8159C179.958 10.6076 179.565 10.4975 179.164 10.4975C178.763 10.4975 178.37 10.6076 178.026 10.8159C177.748 11.0165 177.535 11.2961 177.416 11.619C177.287 11.9887 177.212 12.3753 177.193 12.7667C177.153 13.1677 177.153 13.5718 177.193 13.9728C177.211 14.3623 177.286 14.7468 177.416 15.1144C177.532 15.4389 177.745 15.7193 178.026 15.9174C178.355 16.1783 178.763 16.3173 179.182 16.3113H179.185Z" fill="white"/>
<path d="M60.3573 38.9298C60.2935 38.9326 60.23 38.921 60.1712 38.896C60.1122 38.873 60.0583 38.8385 60.0125 38.7944C59.9631 38.7452 59.9255 38.6852 59.9027 38.6191C59.8781 38.5523 59.8697 38.4805 59.8782 38.4098V25.8191C59.8747 25.754 59.8851 25.6889 59.9088 25.6283C59.9317 25.569 59.9671 25.5155 60.0125 25.4714C60.0576 25.4258 60.1117 25.3902 60.1712 25.3668C60.2302 25.3426 60.2938 25.3321 60.3573 25.336H68.9318C68.9973 25.3321 69.0629 25.3426 69.124 25.3668C69.1837 25.3897 69.2379 25.4254 69.2827 25.4714C69.3272 25.5174 69.3625 25.5717 69.3864 25.6314C69.4099 25.6911 69.4213 25.7549 69.42 25.8191V27.4744C69.4195 27.5375 69.4081 27.5999 69.3864 27.6591C69.3625 27.7187 69.3272 27.773 69.2827 27.8191C69.2364 27.8647 69.1814 27.9003 69.121 27.9237C69.0605 27.9463 68.9962 27.9567 68.9318 27.9544H62.8778V31.2406H68.5504C68.614 31.2393 68.6773 31.2508 68.7365 31.2744C68.7962 31.2974 68.8503 31.3331 68.8952 31.3791C68.9393 31.4236 68.9737 31.4771 68.9959 31.536C69.019 31.5958 69.0304 31.6595 69.0294 31.7237V33.3298C69.0307 33.393 69.0193 33.4558 68.9959 33.5144C68.9736 33.5732 68.9381 33.6259 68.8921 33.6683C68.8477 33.7133 68.7941 33.7481 68.7352 33.7704C68.6762 33.7927 68.6132 33.8019 68.5504 33.7975H62.8778V38.4129C62.8798 38.4779 62.8695 38.5426 62.8473 38.6037C62.8239 38.6636 62.7886 38.7181 62.7434 38.7636C62.6983 38.8091 62.6443 38.8448 62.5848 38.8683C62.5266 38.8916 62.4644 38.9031 62.4018 38.9021L60.3573 38.9298Z" fill="white"/>
<path d="M71.7817 27.2805C71.7211 27.2814 71.6608 27.2698 71.6047 27.2466C71.5486 27.2233 71.4978 27.1888 71.4552 27.1451C71.3666 27.0492 71.3185 26.9223 71.321 26.7913V25.2528C71.3164 25.1186 71.3646 24.9881 71.4552 24.8897C71.4957 24.8435 71.5457 24.8068 71.6017 24.782C71.6587 24.7578 71.7199 24.7452 71.7817 24.7451H73.8018C73.8686 24.7451 73.9348 24.7577 73.9971 24.782C74.0576 24.8065 74.1127 24.8432 74.1588 24.8897C74.2069 24.9364 74.2444 24.9931 74.2686 25.0559C74.2936 25.1184 74.305 25.1855 74.3022 25.2528V26.7913C74.3044 26.8571 74.2927 26.9227 74.268 26.9836C74.2433 27.0446 74.2061 27.0996 74.1588 27.1451C74.0608 27.2338 73.9334 27.2821 73.8018 27.2805H71.7817ZM71.8367 38.9297C71.7759 38.9323 71.7153 38.9207 71.6597 38.8959C71.6041 38.8715 71.5535 38.8371 71.5102 38.7943C71.4681 38.7409 71.438 38.679 71.4217 38.6128C71.408 38.5458 71.408 38.4767 71.4217 38.4097V29.3143C71.4198 29.1852 71.468 29.0605 71.5559 28.9667C71.5992 28.9239 71.6499 28.8895 71.7055 28.8651C71.762 28.8433 71.8219 28.8318 71.8824 28.8313H73.8079C73.938 28.8281 74.0641 28.8767 74.1588 28.9667C74.2451 29.0611 74.2911 29.186 74.287 29.3143V38.4097C74.2908 38.4738 74.2803 38.5379 74.2564 38.5974C74.2354 38.658 74.2022 38.7135 74.1588 38.7605C74.1124 38.806 74.0575 38.8417 73.9972 38.8655C73.9369 38.8893 73.8726 38.9006 73.8079 38.899L71.8367 38.9297Z" fill="white"/>
<path d="M77.1127 38.9297C77.0509 38.9322 76.9894 38.9206 76.9326 38.8958C76.8752 38.8716 76.8225 38.8372 76.777 38.7943C76.7336 38.7473 76.7004 38.6918 76.6794 38.6312C76.6581 38.57 76.6488 38.5052 76.6519 38.4404V29.3143C76.6486 29.2515 76.6579 29.1887 76.6794 29.1297C76.7004 29.07 76.7336 29.0155 76.777 28.9697C76.8207 28.9252 76.8725 28.8897 76.9296 28.8651C76.9873 28.8399 77.0499 28.8284 77.1127 28.8312H78.9893C79.0537 28.8292 79.1179 28.8396 79.1785 28.862C79.2383 28.8865 79.2931 28.922 79.3402 28.9666C79.3838 29.0128 79.4181 29.0671 79.4409 29.1266C79.4657 29.1859 79.4772 29.25 79.4745 29.3143V30.0774C79.8275 29.6439 80.2673 29.2905 80.7652 29.0404C81.364 28.757 82.0203 28.619 82.6815 28.6374C83.3818 28.6211 84.0731 28.7988 84.6802 29.1512C85.2623 29.5075 85.7289 30.0271 86.0228 30.6466C86.3728 31.3991 86.5392 32.2252 86.508 33.0558V38.4097C86.5105 38.475 86.499 38.54 86.4744 38.6004C86.4509 38.6618 86.4132 38.7166 86.3645 38.7604C86.3208 38.8044 86.269 38.8393 86.2119 38.863C86.1548 38.8868 86.0937 38.899 86.0319 38.8989H83.9936C83.9294 38.9003 83.8655 38.8888 83.8058 38.8651C83.7461 38.8413 83.6916 38.8057 83.6457 38.7604C83.6002 38.7152 83.5648 38.6607 83.542 38.6004C83.5188 38.5396 83.5074 38.4748 83.5084 38.4097V33.1051C83.5426 32.5284 83.3705 31.9584 83.0232 31.4989C82.8423 31.301 82.619 31.1474 82.3702 31.0497C82.1228 30.9522 81.8573 30.9102 81.5921 30.9266C81.3245 30.9164 81.0577 30.9614 80.8079 31.0589C80.5584 31.1576 80.3319 31.3074 80.1427 31.4989C79.7633 31.9431 79.5726 32.5201 79.6118 33.1051V38.4097C79.6127 38.4748 79.6014 38.5396 79.5782 38.6004C79.5554 38.6607 79.52 38.7152 79.4745 38.7604C79.4334 38.8058 79.3821 38.8407 79.3249 38.862C79.2691 38.8866 79.2089 38.8992 79.148 38.8989L77.1127 38.9297Z" fill="white"/>
<path d="M91.7593 39.1237C91.1264 39.1337 90.4997 38.9957 89.9285 38.7206C89.4133 38.4813 88.9693 38.11 88.6408 37.6437C88.3201 37.208 88.1496 36.6785 88.1556 36.136C88.144 35.709 88.2384 35.286 88.4302 34.9052C88.6232 34.5246 88.9088 34.1996 89.2602 33.9606C90.138 33.3773 91.1372 33.0056 92.1804 32.8744L94.6948 32.5052V32.1513C94.7233 31.7348 94.602 31.3219 94.353 30.9883C94.1914 30.8346 93.9984 30.7183 93.7876 30.6476C93.5768 30.5769 93.3532 30.5535 93.1325 30.579C92.7752 30.5609 92.4206 30.6497 92.1133 30.8344C91.8616 30.9981 91.6565 31.225 91.5183 31.4929C91.4733 31.5705 91.4091 31.6352 91.3321 31.6806C91.2549 31.724 91.1673 31.7453 91.0789 31.7421H89.248C89.189 31.7462 89.1297 31.7379 89.0741 31.7175C89.0182 31.6965 88.9673 31.664 88.9246 31.6221C88.8859 31.582 88.8567 31.5336 88.8391 31.4806C88.8269 31.4269 88.8269 31.3712 88.8391 31.3175C88.851 31.0327 88.9362 30.756 89.0863 30.5144C89.2942 30.1712 89.5644 29.8706 89.8827 29.6283C90.2778 29.3062 90.7275 29.0591 91.2101 28.899C91.8501 28.6894 92.5208 28.5916 93.1935 28.6098C93.902 28.5995 94.6077 28.7034 95.2837 28.9175C95.7993 29.0773 96.2727 29.3517 96.6691 29.7206C97.0207 30.0671 97.2926 30.4872 97.4655 30.9513C97.6179 31.4312 97.688 31.9338 97.673 32.4375V38.4098C97.6739 38.475 97.6626 38.5397 97.6394 38.6006C97.6166 38.6608 97.5812 38.7154 97.5357 38.7606C97.4911 38.8054 97.4382 38.841 97.38 38.8652C97.3207 38.8885 97.2575 38.9 97.1939 38.899H95.2837C95.2219 38.899 95.1606 38.8864 95.1037 38.8621C95.0459 38.8375 94.9939 38.8008 94.9511 38.7544C94.9065 38.709 94.8721 38.6545 94.8504 38.5944C94.8292 38.5353 94.8199 38.4726 94.8229 38.4098V37.6929C94.6355 37.9589 94.4068 38.1926 94.1455 38.3852C93.8384 38.6101 93.4974 38.7836 93.1355 38.899C92.6916 39.0473 92.227 39.1232 91.7593 39.1237ZM92.5557 37.1083C92.9546 37.1029 93.3459 36.9971 93.6939 36.8006C94.0341 36.6206 94.3119 36.3405 94.4903 35.9975C94.6951 35.553 94.7924 35.0658 94.7741 34.576V34.2467L92.986 34.536C92.4452 34.5981 91.9245 34.7787 91.4603 35.0652C91.3165 35.1568 91.1971 35.2825 91.1124 35.4313C91.0297 35.5801 90.9847 35.747 90.9812 35.9175C90.9764 36.1519 91.0555 36.3802 91.204 36.5606C91.3622 36.7457 91.565 36.8866 91.7929 36.9698C92.03 37.056 92.2794 37.1027 92.5313 37.1083H92.5557Z" fill="white"/>
<path d="M100.431 38.9297C100.337 38.9306 100.245 38.9013 100.168 38.846C100.091 38.7907 100.034 38.7123 100.004 38.622C99.9796 38.5616 99.9682 38.4965 99.9707 38.4312V29.3143C99.9694 29.2501 99.9808 29.1863 100.004 29.1266C100.028 29.0677 100.062 29.0136 100.105 28.9666C100.192 28.8804 100.309 28.8318 100.431 28.8312H102.32C102.385 28.8289 102.449 28.8394 102.509 28.862C102.569 28.8865 102.624 28.922 102.671 28.9666C102.716 29.0126 102.751 29.067 102.775 29.1266C102.797 29.1865 102.808 29.2503 102.805 29.3143V30.0774C103.158 29.6439 103.598 29.2905 104.096 29.0404C104.695 28.757 105.351 28.619 106.012 28.6374C106.713 28.6222 107.404 28.7999 108.011 29.1512C108.593 29.5075 109.06 30.0271 109.354 30.6466C109.704 31.3991 109.87 32.2252 109.839 33.0558V38.4097C109.843 38.475 109.831 38.5404 109.805 38.6004C109.782 38.661 109.745 38.7156 109.699 38.7604C109.609 38.8489 109.488 38.8986 109.363 38.8989H107.325C107.26 38.9003 107.197 38.8888 107.137 38.8651C107.077 38.8413 107.023 38.8057 106.977 38.7604C106.931 38.7152 106.896 38.6607 106.873 38.6004C106.85 38.5396 106.838 38.4748 106.839 38.4097V33.1051C106.875 32.5282 106.703 31.9578 106.354 31.4989C106.174 31.3018 105.952 31.1483 105.704 31.0497C105.456 30.9524 105.189 30.9104 104.923 30.9266C104.655 30.9154 104.388 30.9605 104.139 31.059C103.889 31.1575 103.663 31.3073 103.474 31.4989C103.094 31.9431 102.904 32.5201 102.943 33.1051V38.4097C102.945 38.475 102.934 38.54 102.909 38.6004C102.877 38.689 102.819 38.7657 102.743 38.8206C102.666 38.8754 102.576 38.9059 102.482 38.9081L100.431 38.9297Z" fill="white"/>
<path d="M116.592 39.1237C115.738 39.139 114.892 38.9603 114.117 38.6006C113.421 38.2634 112.838 37.7287 112.439 37.0621C112.006 36.3332 111.773 35.5021 111.761 34.6529V33.0437C111.777 32.1972 112.005 31.3685 112.424 30.6344C112.822 29.9644 113.41 29.4289 114.111 29.096C114.887 28.7303 115.736 28.5512 116.592 28.5729C117.336 28.5545 118.078 28.6744 118.78 28.9267C119.327 29.1367 119.829 29.45 120.26 29.8498C120.617 30.1669 120.909 30.5516 121.12 30.9821C121.291 31.3063 121.395 31.6623 121.425 32.0283C121.434 32.0904 121.428 32.1538 121.407 32.2129C121.386 32.2714 121.351 32.3241 121.306 32.3667C121.262 32.4131 121.209 32.4498 121.151 32.4744C121.092 32.499 121.028 32.5116 120.964 32.5114H118.911C118.856 32.514 118.801 32.5056 118.749 32.4867C118.696 32.4706 118.648 32.4422 118.609 32.4037C118.528 32.3117 118.461 32.2079 118.41 32.096C118.267 31.7303 118.028 31.4111 117.718 31.1729C117.401 30.9719 117.033 30.8712 116.659 30.8837C116.404 30.8717 116.15 30.9159 115.914 31.0131C115.678 31.1104 115.465 31.2583 115.292 31.4467C114.917 31.9497 114.728 32.569 114.758 33.1975V34.5729C114.74 35.2022 114.934 35.819 115.307 36.3237C115.479 36.5069 115.687 36.6516 115.917 36.7483C116.151 36.8425 116.402 36.8845 116.653 36.8713C117.034 36.8872 117.411 36.7794 117.727 36.5637C118.041 36.3124 118.276 35.9747 118.404 35.5913C118.441 35.4736 118.507 35.3676 118.597 35.2837C118.681 35.2108 118.79 35.1734 118.902 35.179H120.955C121.019 35.1763 121.083 35.1878 121.141 35.2129C121.2 35.2386 121.253 35.2763 121.297 35.3237C121.343 35.3657 121.377 35.4186 121.398 35.4775C121.419 35.5355 121.425 35.5979 121.416 35.659C121.401 35.9354 121.339 36.207 121.233 36.4621C121.119 36.7819 120.956 37.0811 120.748 37.3483C120.488 37.6826 120.179 37.9752 119.832 38.216C119.419 38.5029 118.963 38.7201 118.481 38.859C117.867 39.0396 117.231 39.1288 116.592 39.1237Z" fill="white"/>
<path d="M127.763 39.1235C127.117 39.1788 126.466 39.0929 125.856 38.8716C125.245 38.6503 124.689 38.2988 124.226 37.8411C123.762 37.3834 123.402 36.8303 123.17 36.2196C122.938 35.6088 122.839 34.9547 122.881 34.3019V33.4989C122.908 32.5985 123.14 31.7164 123.558 30.9204C123.943 30.2209 124.522 29.6499 125.224 29.2773C126.005 28.8786 126.872 28.6819 127.748 28.705C128.691 28.668 129.626 28.8994 130.445 29.3727C131.157 29.8054 131.727 30.44 132.084 31.1973C132.461 32.0278 132.649 32.9331 132.633 33.8466V34.2989C132.633 34.3616 132.62 34.4236 132.593 34.4804C132.568 34.5378 132.529 34.5884 132.48 34.6281C132.391 34.7149 132.272 34.7635 132.148 34.7635H125.862V34.9173C125.865 35.3101 125.946 35.6983 126.1 36.0589C126.24 36.3776 126.46 36.6543 126.738 36.8619C127.023 37.0726 127.37 37.1809 127.723 37.1696C127.995 37.1819 128.267 37.1357 128.52 37.0342C128.707 36.9555 128.88 36.8441 129.029 36.705C129.14 36.6037 129.242 36.4936 129.334 36.3758C129.41 36.2778 129.504 36.1961 129.612 36.1358C129.718 36.0965 129.832 36.0797 129.945 36.0866H131.952C132.064 36.0809 132.173 36.1183 132.258 36.1912C132.3 36.2267 132.332 36.2721 132.352 36.3235C132.37 36.3758 132.377 36.4315 132.371 36.4866C132.334 36.7786 132.224 37.0562 132.05 37.2927C131.812 37.6374 131.517 37.9382 131.177 38.1819C130.74 38.4994 130.256 38.7465 129.743 38.9142C129.099 39.0913 128.43 39.162 127.763 39.1235ZM125.862 32.9296H129.633C129.641 32.5085 129.565 32.0901 129.411 31.6989C129.274 31.376 129.051 31.0979 128.767 30.8958C128.461 30.7028 128.108 30.6004 127.748 30.6004C127.387 30.6004 127.034 30.7028 126.728 30.8958C126.439 31.092 126.214 31.3719 126.085 31.6989C125.924 32.0883 125.848 32.508 125.862 32.9296Z" fill="white"/>
</g>
</g>
</g>
<defs>
<linearGradient id="paint0_linear_1318_7136" x1="21.9157" y1="0.662109" x2="21.9157" y2="44.6621" gradientUnits="userSpaceOnUse">
<stop stop-color="#4D02E0"/>
<stop offset="1" stop-color="#8A2AE2"/>
</linearGradient>
<linearGradient id="paint1_linear_1318_7136" x1="12.5357" y1="14.9604" x2="12.5357" y2="30.3635" gradientUnits="userSpaceOnUse">
<stop stop-color="#8911F5"/>
<stop offset="1" stop-color="white"/>
</linearGradient>
<clipPath id="clip0_1318_7136">
<rect width="184" height="44" fill="white" transform="translate(0.0981445 0.662109)"/>
</clipPath>
</defs>
</svg>
