<svg width="195" height="50" viewBox="0 0 195 50" fill="none" xmlns="http://www.w3.org/2000/svg">
<g clip-path="url(#clip0_1272_6886)">
<mask id="mask0_1272_6886" style="mask-type:luminance" maskUnits="userSpaceOnUse" x="0" y="0" width="196" height="50">
<path d="M195.001 0.662109H0V49.5272H195.001V0.662109Z" fill="white"/>
</mask>
<g mask="url(#mask0_1272_6886)">
<path d="M21.392 0.662109L0 12.8784V37.311L21.392 49.5272L42.7841 37.311V12.8784L21.392 0.662109ZM33.7213 32.1332L21.396 39.1717L9.0706 32.1332V18.0561L21.396 11.0176L33.7213 18.0561V32.1332Z" fill="white"/>
<path d="M66.2551 37.3364C64.1308 37.3364 62.2278 36.8556 60.5518 35.8879C58.8742 34.9225 57.5501 33.5288 56.58 31.7033C55.6096 29.8776 55.1254 27.6807 55.1254 25.1104C55.1254 22.5401 55.6155 20.3079 56.5897 18.4764C57.5659 16.6469 58.894 15.2513 60.5776 14.2916C62.2594 13.3319 64.1525 12.853 66.2572 12.853C67.6245 12.853 68.9012 13.0465 70.075 13.4296C71.2509 13.8127 72.2963 14.3698 73.2131 15.1008C74.1302 15.8318 74.8752 16.7251 75.4543 17.7806C76.0313 18.8361 76.4048 20.0362 76.5787 21.3829H71.8062C71.6974 20.7007 71.4881 20.0909 71.1759 19.5495C70.8615 19.012 70.4663 18.5526 69.9882 18.1734C69.5079 17.7943 68.9626 17.5069 68.3559 17.3095C67.7451 17.1121 67.0813 17.0144 66.358 17.0144C65.0853 17.0144 63.9649 17.3291 62.9926 17.9584C62.0223 18.5878 61.2633 19.5045 60.7199 20.7105C60.1745 21.9146 59.9017 23.3844 59.9017 25.1104C59.9017 26.8363 60.1764 28.3354 60.7258 29.5356C61.2772 30.7356 62.0322 31.6408 62.9985 32.2544C63.9649 32.868 65.0794 33.175 66.3382 33.175C67.0398 33.175 67.6918 33.0811 68.2945 32.8935C68.8972 32.7079 69.4407 32.4341 69.9209 32.0765C70.3992 31.7208 70.8023 31.2829 71.1263 30.765C71.4506 30.2471 71.6778 29.6528 71.8062 28.9825H76.5787C76.4383 30.1005 76.1023 31.1637 75.5687 32.1664C75.0352 33.1673 74.3239 34.0566 73.4326 34.8287C72.5434 35.6027 71.4959 36.2105 70.2945 36.6621C69.0909 37.1096 67.7451 37.3343 66.2591 37.3343V37.3402L66.2551 37.3364Z" fill="white"/>
<path d="M83.7602 26.6056V37.0061H79.1339V13.1638H83.6316V22.2352H83.8588C84.2779 21.2011 84.938 20.3841 85.8331 19.786C86.7263 19.1899 87.8665 18.8888 89.2459 18.8888C90.4968 18.8888 91.5937 19.1547 92.5284 19.6883C93.4669 20.2219 94.1961 20.99 94.712 21.9927C95.2297 22.9936 95.4867 24.2073 95.4867 25.6264V37.0022H90.8428V26.3946C90.8428 25.2413 90.5462 24.3441 89.9534 23.6971C89.3606 23.0522 88.5226 22.7296 87.4455 22.7296C86.7223 22.7296 86.086 22.8841 85.5367 23.1948C84.9854 23.5057 84.5526 23.9454 84.2343 24.5142C83.9162 25.0868 83.758 25.7789 83.758 26.6037V26.6075L83.7602 26.6056Z" fill="white"/>
<path d="M103.711 37.36C102.557 37.36 101.525 37.1567 100.615 36.752C99.7034 36.3454 98.9861 35.7455 98.4624 34.9519C97.9388 34.1583 97.678 33.1731 97.678 32.0004C97.678 30.9996 97.8637 30.1649 98.2373 29.5025C98.6106 28.8398 99.1166 28.3063 99.7589 27.8957C100.401 27.4853 101.126 27.1745 101.942 26.9672C102.757 26.7601 103.612 26.6136 104.506 26.5274C105.563 26.4201 106.415 26.3223 107.063 26.2324C107.711 26.1425 108.181 25.9978 108.478 25.8004C108.774 25.6029 108.922 25.3118 108.922 24.9286V24.8485C108.922 24.047 108.673 23.4256 108.179 22.9838C107.683 22.542 106.976 22.3193 106.059 22.3193C105.089 22.3193 104.318 22.5284 103.745 22.9525C103.174 23.3727 102.792 23.8829 102.597 24.479L98.2925 24.0138C98.5613 22.9271 99.0514 22.0007 99.7568 21.2383C100.462 20.4761 101.35 19.8936 102.417 19.4929C103.484 19.0922 104.697 18.8909 106.057 18.8909C106.996 18.8909 107.911 19.0003 108.8 19.2192C109.689 19.4362 110.491 19.7841 111.211 20.261C111.926 20.736 112.501 21.3634 112.924 22.1414C113.349 22.9213 113.564 23.8691 113.564 24.9911V37.0061H109.134V34.5257H109.005C108.723 35.0574 108.349 35.5401 107.873 35.9682C107.399 36.3963 106.816 36.7324 106.126 36.9847C105.436 37.2368 104.632 37.3619 103.715 37.3619H103.709L103.711 37.36ZM104.97 34.0958C105.768 34.0958 106.464 33.9394 107.057 33.6247C107.65 33.3099 108.114 32.8897 108.448 32.362C108.782 31.8343 108.95 31.2498 108.95 30.6107V28.6092C108.8 28.7166 108.576 28.8125 108.288 28.8984C107.995 28.9845 107.667 29.0625 107.3 29.1311C106.934 29.1995 106.571 29.26 106.215 29.3148C105.859 29.3676 105.541 29.4105 105.26 29.4418C104.646 29.5279 104.104 29.6666 103.634 29.8561C103.164 30.0496 102.794 30.3096 102.525 30.6399C102.257 30.9704 102.12 31.3866 102.12 31.8889C102.12 32.6141 102.387 33.1633 102.921 33.5386C103.454 33.9121 104.136 34.0976 104.966 34.0976H104.968L104.97 34.0958Z" fill="white"/>
<path d="M116.604 37.0078V19.1194H121.23V37.0078H116.604Z" fill="white"/>
<path d="M128.899 26.6056V37.0061H124.273V19.1156H128.818V22.2353H129.014C129.423 21.211 130.073 20.3979 130.962 19.7939C131.852 19.1899 132.97 18.8909 134.32 18.8909C135.571 18.8909 136.664 19.1567 137.594 19.6903C138.527 20.222 139.25 20.994 139.764 22.0007C140.276 23.0092 140.533 24.2171 140.533 25.6244V37.0003H135.907V26.3925C135.907 25.2512 135.608 24.3539 135.01 23.705C134.413 23.0562 133.589 22.7278 132.541 22.7278C131.83 22.7278 131.199 22.8823 130.656 23.1929C130.111 23.5036 129.684 23.9436 129.37 24.5124C129.055 25.085 128.901 25.777 128.901 26.6017V26.6056H128.899Z" fill="white"/>
<path d="M148.198 11.991V37.0079H143.571V11.991H148.198Z" fill="white"/>
<path d="M151.237 37.0078V19.1194H155.863V37.0078H151.237Z" fill="white"/>
<path d="M163.531 26.6056V37.0061H158.904V19.1156H163.45V22.2353H163.645C164.054 21.211 164.704 20.3979 165.594 19.7939C166.483 19.1899 167.602 18.8909 168.951 18.8909C170.202 18.8909 171.295 19.1567 172.228 19.6903C173.16 20.222 173.884 20.994 174.396 22.0007C174.907 23.0092 175.164 24.2171 175.164 25.6244V37.0003H170.538V26.3925C170.538 25.2512 170.24 24.3539 169.641 23.705C169.044 23.0562 168.22 22.7278 167.173 22.7278C166.461 22.7278 165.831 22.8823 165.287 23.1929C164.742 23.5036 164.315 23.9436 164.001 24.5124C163.687 25.085 163.531 25.777 163.531 26.6017V26.6056Z" fill="white"/>
<path d="M189.515 37.008H195.001L187.778 26.8656L194.628 19.1175H189.258L183.124 26.111H182.836V13.1638H178.208V37.008H182.836V31.1676L184.286 29.5767L189.515 37.0061V37.008Z" fill="white"/>
<path d="M121.266 11.991H116.64V16.5667H121.266V11.991Z" fill="white"/>
<path d="M155.903 11.991H151.277V16.5667H155.903V11.991Z" fill="white"/>
</g>
</g>
<defs>
<clipPath id="clip0_1272_6886">
<rect width="195" height="49" fill="white" transform="translate(0 0.662109)"/>
</clipPath>
</defs>
</svg>
