<svg width="175" height="44" viewBox="0 0 175 44" fill="none" xmlns="http://www.w3.org/2000/svg">
<g clip-path="url(#clip0_1186_7121)">
<path d="M95.5821 11.4443L89.5015 26.6813L83.3592 11.4443H77.0613V33.4546H82.3923V20.2242L87.318 33.4546H91.6205L96.5167 20.2537V33.4546H101.848V11.4443H95.5821Z" fill="white"/>
<path d="M105.666 11.4443V33.4546H110.997V11.4443H105.666Z" fill="white"/>
<path d="M122.943 11.4443H114.741V33.4546H122.943C129.926 33.4546 134.416 28.9716 134.416 22.4494C134.416 15.9273 129.926 11.4443 122.943 11.4443ZM122.599 28.8149H120.075V16.0219H122.599C126.623 16.0219 128.991 18.4038 128.991 22.4494C128.991 26.4951 126.623 28.8149 122.599 28.8149Z" fill="white"/>
<path d="M148.386 11.4443H142.213L134.293 33.4546H139.874L141.182 29.5656H149.352L150.663 33.4546H156.306L148.386 11.4443ZM142.587 25.4283L145.267 17.3695L147.979 25.4283H142.587Z" fill="white"/>
<path d="M162.471 17.4351C162.471 16.0549 163.438 15.396 164.717 15.4285C166.152 15.458 167.147 16.3061 167.241 17.7158H173.01C172.79 13.5135 169.582 11.1316 164.808 11.1316C160.035 11.1316 156.826 13.4514 156.826 17.6212C156.765 25.4288 167.709 23.2331 167.709 27.3113C167.709 28.5968 166.712 29.3799 165.152 29.3799C163.592 29.3799 162.595 28.5642 162.439 26.8709H156.765C156.921 31.3244 160.6 33.6738 165.308 33.6738C170.422 33.6738 173.29 30.6033 173.29 26.9034C173.29 19.5332 162.471 21.259 162.471 17.4351Z" fill="white"/>
<path fill-rule="evenodd" clip-rule="evenodd" d="M10.4202 12.2761L1.20123 6.9789C0.709712 6.69648 0.0981445 7.05335 0.0981445 7.6226V30.6915C0.0981445 31.2235 0.381683 31.7149 0.841125 31.9788L19.6391 42.7801C20.1307 43.0626 20.7422 42.7057 20.7422 42.1365V31.1813L10.4202 24.8795V12.2761Z" fill="url(#paint0_linear_1186_7121)" fill-opacity="0.5"/>
<path fill-rule="evenodd" clip-rule="evenodd" d="M41.3862 31.1813V42.1365C41.3862 42.7057 41.9977 43.0626 42.4894 42.7801L61.2873 31.9788C61.7467 31.7149 62.0303 31.2235 62.0303 30.6915V7.6226C62.0303 7.05335 61.4188 6.69648 60.9272 6.9789L51.7083 12.2761V24.8795L41.3862 31.1813Z" fill="url(#paint1_linear_1186_7121)" fill-opacity="0.5"/>
<path d="M10.4202 1.69169C10.4202 1.12245 11.0317 0.765571 11.5233 1.048L30.6984 12.066C30.925 12.1963 31.2034 12.1963 31.4301 12.066L50.6052 1.048C51.0968 0.76557 51.7083 1.12245 51.7083 1.69169V24.8797L31.4469 37.2496C31.2117 37.3931 30.9168 37.3931 30.6816 37.2496L10.4202 24.8797V1.69169Z" fill="#3864FF"/>
<path d="M10.4202 1.69169C10.4202 1.12245 11.0317 0.765571 11.5233 1.048L30.6984 12.066C30.925 12.1963 31.2034 12.1963 31.4301 12.066L50.6052 1.048C51.0968 0.76557 51.7083 1.12245 51.7083 1.69169V24.8797L31.4469 37.2496C31.2117 37.3931 30.9168 37.3931 30.6816 37.2496L10.4202 24.8797V1.69169Z" fill="url(#paint2_linear_1186_7121)"/>
</g>
<defs>
<linearGradient id="paint0_linear_1186_7121" x1="0.0981445" y1="24.8795" x2="20.7422" y2="24.8795" gradientUnits="userSpaceOnUse">
<stop stop-color="#3864FF"/>
<stop offset="1" stop-color="#3894FF"/>
</linearGradient>
<linearGradient id="paint1_linear_1186_7121" x1="41.3862" y1="24.8795" x2="62.0303" y2="24.8795" gradientUnits="userSpaceOnUse">
<stop stop-color="#3864FF"/>
<stop offset="1" stop-color="#3894FF"/>
</linearGradient>
<linearGradient id="paint2_linear_1186_7121" x1="10.4202" y1="18.9486" x2="51.7083" y2="18.9486" gradientUnits="userSpaceOnUse">
<stop stop-color="#3864FF"/>
<stop offset="1" stop-color="#3894FF"/>
</linearGradient>
<clipPath id="clip0_1186_7121">
<rect width="174" height="43" fill="white" transform="translate(0.0981445 0.162109)"/>
</clipPath>
</defs>
</svg>
