<svg width="163" height="38" viewBox="0 0 163 38" fill="none" xmlns="http://www.w3.org/2000/svg">
<g clip-path="url(#clip0_1272_6874)">
<mask id="mask0_1272_6874" style="mask-type:luminance" maskUnits="userSpaceOnUse" x="0" y="0" width="162" height="38">
<path d="M161.961 0.662109H0.5V37.6621H161.961V0.662109Z" fill="white"/>
</mask>
<g mask="url(#mask0_1272_6874)">
<path d="M20.9967 17.054H13.5796C13.0662 17.054 12.6487 17.4723 12.6487 17.9895V31.5051C12.6487 31.7535 12.5503 31.9907 12.3762 32.1668L7.23217 37.3363C6.86888 37.7013 6.27981 37.7013 5.91653 37.3363L0.772466 32.1668C0.59839 31.9918 0.5 31.7535 0.5 31.5051V6.79491C0.5 6.54646 0.59839 6.30942 0.772466 6.1332L5.91653 0.963753C6.27981 0.598671 6.86888 0.598671 7.23217 0.963753L21.6539 15.4567C22.2404 16.0462 21.8267 17.054 20.9967 17.054Z" fill="#F09AEB"/>
<path d="M19.0668 21.2461H26.4841C26.9975 21.2461 27.415 20.8278 27.415 20.3105V6.79491C27.415 6.54646 27.5133 6.30942 27.6875 6.1332L32.8302 0.963753C33.1934 0.598671 33.7825 0.598671 34.1459 0.963753L39.29 6.1332C39.4639 6.30814 39.5624 6.54646 39.5624 6.79491V31.5051C39.5624 31.7535 39.4639 31.9907 39.29 32.1668L34.1459 37.3363C33.7825 37.7013 33.1934 37.7013 32.8302 37.3363L18.4085 22.8434C17.8219 22.2538 18.2369 21.2461 19.0668 21.2461Z" fill="#F09AEB"/>
<path d="M146.125 7.94088L153.093 0.938409C153.268 0.763474 153.505 0.664598 153.752 0.664598H161.03C161.544 0.664598 161.961 1.08292 161.961 1.60012V8.91062C161.961 9.15907 161.863 9.39613 161.689 9.57233L151.814 19.4917C151.64 19.6666 151.542 19.9048 151.542 20.1533V31.5584C151.542 31.8068 151.444 32.0438 151.269 32.2201L146.125 37.3883C145.762 37.7533 145.173 37.7533 144.81 37.3883L139.667 32.2201C139.493 32.0451 139.395 31.8068 139.395 31.5584V20.1572C139.395 19.9087 139.296 19.6717 139.122 19.4954L129.248 9.57233C129.074 9.39741 128.975 9.15907 128.975 8.91062V1.59885C128.975 1.08292 129.392 0.66333 129.906 0.66333H137.181C137.428 0.66333 137.664 0.762206 137.839 0.937142L144.812 7.94088C145.176 8.30596 145.765 8.30596 146.128 7.94088H146.125Z" fill="#F09AEB"/>
<path d="M74.6901 25.7272L79.8329 30.8954C80.1963 31.2606 80.1963 31.8526 79.8329 32.2176L74.6851 37.387C74.511 37.562 74.2739 37.6608 74.0266 37.6608H53.3519C53.106 37.6608 52.8702 37.5633 52.696 37.3883L47.6705 32.3633C47.4953 32.1885 47.397 31.9488 47.397 31.7003V20.1078C47.397 19.5919 47.8132 19.1723 48.3277 19.1723H57.4933C58.322 19.1723 58.737 18.1645 58.1517 17.5763L47.8044 7.17528C47.441 6.81018 47.441 6.2182 47.8044 5.85312L52.696 0.935921C52.8715 0.760986 53.1073 0.662109 53.3545 0.662109H74.0316C74.2788 0.662109 74.5149 0.760986 74.6901 0.935921L79.8329 6.10538C80.1963 6.47046 80.1963 7.06244 79.8329 7.42752L74.6901 12.5957C74.5161 12.7707 74.2788 12.8695 74.0316 12.8695H67.8646C67.0358 12.8695 66.6209 13.876 67.2061 14.4655L71.2174 18.5004C71.5808 18.8655 71.5808 19.4576 71.2174 19.8226L67.2061 23.8574C66.6209 24.447 67.0358 25.4534 67.8646 25.4534H74.0316C74.2788 25.4534 74.5149 25.5524 74.6901 25.7272Z" fill="#F09AEB"/>
<path d="M114.679 19.8212L122.569 27.7516C122.932 28.1166 122.932 28.7086 122.569 29.0738L114.296 37.387C114.122 37.562 113.885 37.6608 113.638 37.6608H86.8162C85.9874 37.6608 85.5725 36.6531 86.1577 36.0648L96.4445 25.7272C96.6187 25.5523 96.8558 25.4534 97.103 25.4534H101.964C102.212 25.4534 102.448 25.3546 102.622 25.1796L107.954 19.8264C108.317 19.4612 108.317 18.8692 107.954 18.5042L102.622 13.1445C102.448 12.9696 102.21 12.8707 101.963 12.8707H97.1017C96.8545 12.8707 96.6187 12.7719 96.4432 12.5969L86.1616 2.25929C85.5749 1.66984 85.9911 0.66333 86.8199 0.66333H113.635C113.882 0.66333 114.118 0.762206 114.294 0.937142L122.567 9.25163C122.93 9.61671 122.93 10.2087 122.567 10.5738L114.679 18.4991C114.316 18.8642 114.316 19.4562 114.679 19.8212Z" fill="#F09AEB"/>
</g>
</g>
<defs>
<clipPath id="clip0_1272_6874">
<rect width="162" height="37" fill="white" transform="translate(0.5 0.662109)"/>
</clipPath>
</defs>
</svg>
