<svg width="195" height="47" viewBox="0 0 195 47" fill="none" xmlns="http://www.w3.org/2000/svg">
<path d="M4.08444 46.0525C2.30327 45.2031 1.12678 43.4703 1.00866 41.5224C0.89053 39.5744 1.84922 37.7157 3.51504 36.6629C5.18085 35.6101 7.29353 35.5277 9.03838 36.4476C11.6617 37.8306 12.6815 41.0293 11.3328 43.6442C9.98403 46.2592 6.76237 47.3296 4.08444 46.0525Z" fill="#F54703"/>
<path d="M2.83655 9.46058C-0.696392 15.9175 0.708081 23.9101 6.23992 28.8285C6.85425 29.3839 7.8126 29.3719 8.40236 28.8164C10.8024 26.5877 11.5593 23.1372 10.3068 20.1347C8.9321 17.0208 9.75005 13.3912 12.3341 11.139C14.9665 8.83842 18.752 8.32808 21.9176 9.84697C25.0554 11.3085 26.8982 14.5711 26.5005 17.9612C26.0366 21.3576 23.4576 24.1046 20.05 24.8318C16.8085 25.5859 14.3407 28.1729 13.7839 31.4004C13.661 32.1853 14.2139 32.9219 15.0494 33.0667C23.4657 34.5157 31.7222 29.8549 34.413 22.1512C37.116 14.4233 33.4301 6.0072 25.7756 2.38477C17.519 -1.50331 7.0877 1.72066 2.83655 9.46058Z" fill="url(#paint0_linear_1134_6823)"/>
<path fill-rule="evenodd" clip-rule="evenodd" d="M49.1608 31.6745C49.5038 32.0217 49.957 32.2134 50.4348 32.2014C50.9126 32.2134 51.3658 32.0337 51.7088 31.6745C52.0396 31.3151 52.211 30.8482 52.1988 30.3572V26.501H54.857C58.4217 26.501 60.9207 24.2616 60.9207 20.9444C60.9207 17.6512 58.4952 15.4357 54.857 15.4357H50.4592C49.9816 15.4238 49.516 15.6034 49.173 15.9627C48.8424 16.3099 48.6585 16.777 48.6708 17.28V30.3572C48.6585 30.8482 48.8301 31.3271 49.1608 31.6745ZM54.8814 23.4593H52.1988V18.4895H54.8814C56.3515 18.4895 57.3315 19.4715 57.3315 20.9565C57.3682 21.6272 57.1232 22.2858 56.6577 22.7647C56.18 23.2438 55.543 23.4952 54.8814 23.4593Z" fill="#F1F8FF"/>
<path fill-rule="evenodd" clip-rule="evenodd" d="M75.6793 31.0847C76.0251 31.6715 76.6798 32.0188 77.3838 32.0068C78.3061 32.0079 79.0671 31.3071 79.1132 30.4141C79.0885 29.8752 78.8908 29.3603 78.545 28.9411L75.9264 25.3605L76.2969 25.1089C77.7214 24.1019 78.5473 22.4826 78.5079 20.7739C78.5079 17.5045 75.9387 15.3011 72.0849 15.3011H67.4282C66.9197 15.2808 66.4256 15.4669 66.0647 15.8147C65.7036 16.1624 65.5084 16.6403 65.526 17.1334V30.1746C65.526 31.1732 66.3611 31.9828 67.3912 31.9828C68.4212 31.9828 69.2563 31.1732 69.2563 30.1746V26.3185H72.406L75.6793 31.0847ZM72.1096 23.289H69.2687V18.3431H72.1096C73.6536 18.3431 74.7035 19.3251 74.7035 20.7981C74.74 21.4732 74.4776 22.1313 73.9823 22.607C73.4868 23.0828 72.8056 23.3309 72.1096 23.289Z" fill="#F1F8FF"/>
<path fill-rule="evenodd" clip-rule="evenodd" d="M81.8075 23.5863C81.8075 28.3487 85.7853 32.0689 90.8788 32.0689C95.9964 32.0689 99.9985 28.3487 99.9985 23.5863C99.9985 18.8239 95.9601 15.1037 90.8788 15.1037C85.7974 15.1037 81.8075 18.8239 81.8075 23.5863ZM87.101 19.7973C88.107 18.7991 89.4868 18.2698 90.903 18.3391C92.317 18.2773 93.6925 18.809 94.6968 19.8056C95.701 20.8021 96.2426 22.173 96.1904 23.5862C96.1904 26.6763 94.0561 28.8334 90.903 28.8334C89.4838 28.9143 88.097 28.3887 87.0884 27.3878C86.0798 26.3869 85.5443 25.0049 85.6154 23.5862C85.5558 22.1708 86.095 20.7957 87.101 19.7973Z" fill="#F1F8FF"/>
<path d="M109.768 32.0683C109.268 32.0752 108.787 31.8808 108.437 31.5305C108.087 31.1802 107.898 30.7045 107.915 30.2142V18.3265H103.987C103.085 18.3265 102.357 17.5993 102.357 16.7147C102.357 15.818 103.085 15.103 103.987 15.103H115.548C116.45 15.103 117.179 15.8301 117.179 16.7147C117.179 17.5993 116.45 18.3265 115.548 18.3265H111.633V30.2021C111.645 30.6989 111.46 31.1837 111.102 31.5351C110.744 31.8986 110.262 32.0804 109.755 32.0683H109.768Z" fill="#F1F8FF"/>
<path fill-rule="evenodd" clip-rule="evenodd" d="M118.189 23.5863C118.189 28.3487 122.167 32.0689 127.26 32.0689C132.366 32.0689 136.38 28.3487 136.38 23.5863C136.38 18.8239 132.342 15.1037 127.26 15.1037C122.179 15.1037 118.189 18.8239 118.189 23.5863ZM123.482 19.7973C124.488 18.7991 125.868 18.2698 127.284 18.3391C128.699 18.2773 130.074 18.809 131.078 19.8056C132.082 20.8021 132.625 22.173 132.572 23.5862C132.572 26.6763 130.438 28.8334 127.284 28.8334C125.865 28.9143 124.478 28.3887 123.47 27.3878C122.461 26.3869 121.926 25.0049 121.997 23.5862C121.937 22.1708 122.476 20.7957 123.482 19.7973Z" fill="#F1F8FF"/>
<path d="M141.902 32.193C141.41 32.2101 140.933 32.0214 140.593 31.6745C140.247 31.3127 140.062 30.8304 140.099 30.3481V17.1559C140.073 16.6495 140.259 16.1792 140.605 15.8294C140.951 15.4677 141.432 15.2868 141.927 15.2989H149.61C150.486 15.2989 151.203 16.0224 151.203 16.9027C151.212 17.3227 151.049 17.7289 150.75 18.0304C150.451 18.3318 150.039 18.5034 149.61 18.5065H143.718V22.727H148.227C149.116 22.727 149.832 23.4505 149.832 24.3429C149.838 24.7627 149.672 25.1678 149.37 25.467C149.069 25.7662 148.656 25.9347 148.227 25.9346H143.718V30.336C143.742 30.8184 143.557 31.3006 143.211 31.6625C142.865 32.0121 142.395 32.193 141.902 32.1809V32.193Z" fill="#F1F8FF"/>
<path d="M157.942 32.1922C157.456 32.2043 156.971 32.0235 156.632 31.6858C156.283 31.3434 156.098 30.8698 156.123 30.3835V17.1794C156.098 16.5281 156.437 15.9012 157.008 15.5635C157.584 15.224 158.299 15.224 158.875 15.5635C159.445 15.9012 159.785 16.5281 159.76 17.1794V30.3835C159.785 30.8658 159.602 31.3481 159.264 31.6858C158.912 32.0354 158.438 32.2164 157.942 32.2043V32.1922Z" fill="#F1F8FF"/>
<path fill-rule="evenodd" clip-rule="evenodd" d="M174.921 31.2037C175.249 31.7946 175.906 32.1442 176.589 32.1322C177.493 32.1269 178.236 31.423 178.282 30.5283C178.258 29.9857 178.063 29.4672 177.721 29.0452L175.14 25.4396L175.492 25.1744C176.899 24.1653 177.716 22.5398 177.685 20.8213C177.685 17.5293 175.152 15.3104 171.351 15.3104H166.761C166.259 15.29 165.771 15.4774 165.416 15.8275C165.06 16.1777 164.867 16.6589 164.885 17.1554V30.2872C164.848 30.9587 165.19 31.595 165.774 31.9393C166.356 32.3047 167.096 32.315 167.687 31.9659C168.279 31.6168 168.623 30.9678 168.575 30.2872V26.4043H171.681L174.921 31.2037ZM171.376 23.3535H168.575V18.3732H171.376C172.911 18.3732 173.933 19.3621 173.933 20.8452C173.966 21.524 173.707 22.1843 173.219 22.6625C172.731 23.1406 172.061 23.3917 171.376 23.3535Z" fill="#F1F8FF"/>
<path d="M183.698 32.1924C183.177 32.2092 182.673 32.0156 182.303 31.6571C181.934 31.2988 181.733 30.8074 181.747 30.2992V17.2036C181.721 16.6922 181.92 16.1942 182.292 15.8334C182.664 15.4725 183.174 15.2825 183.698 15.3104H192.086C193.012 15.3104 193.764 16.0339 193.764 16.9382C193.764 17.8427 193.012 18.5783 192.086 18.5783H185.563V21.9546H189.886C190.739 21.9546 191.418 22.6058 191.418 23.4258C191.418 24.2459 190.739 24.909 189.886 24.909H185.563V28.9246H192.418C193.345 28.9246 194.098 29.6481 194.098 30.5524C194.098 31.4568 193.345 32.1804 192.418 32.1804L183.698 32.1924Z" fill="#F1F8FF"/>
<defs>
<linearGradient id="paint0_linear_1134_6823" x1="25.7149" y1="38.512" x2="39.7372" y2="9.11033" gradientUnits="userSpaceOnUse">
<stop stop-color="#F54703"/>
<stop offset="1" stop-color="#FAC902"/>
</linearGradient>
</defs>
</svg>
