<svg width="217" height="42" viewBox="0 0 217 42" fill="none" xmlns="http://www.w3.org/2000/svg">
<g clip-path="url(#clip0_1272_6884)">
<path d="M31.4557 41.6621H43.8262L62.9641 13.5929L62.806 32.8361H54.0826L48.1089 41.6621H68.6185L72.85 37.5574V4.76684L68.62 0.662109H60.7445L31.4557 41.6621ZM16.2827 41.6621H27.1203L56.358 0.662109H45.5188L16.2827 41.6621ZM24.5287 0.662109H4.2315L0 4.76684V37.5574L4.22995 41.6621H11.8947L41.1308 0.662109H28.8656L9.8859 28.0643L10.0455 9.54019H18.4512L24.5287 0.662109ZM101.875 24.163L97.7786 28.2583H95.5466L91.45 24.163V14.066H94.2896V22.9866L96.6626 25.3599L99.0357 22.9866V14.066H101.875V24.163ZM109.176 28.2583V25.4608H111.609V16.8634H109.176V14.066H116.882V16.8634H114.449V25.4608H116.882V28.2583H109.176ZM131.77 28.2583V24.5683H127.022V28.2583H124.181V18.1612L128.281 14.066H130.513L134.608 18.1612V28.2583H131.77ZM131.77 19.3376L129.397 16.9659L127.024 19.3376V21.7708H131.77V19.3376ZM153.774 28.2583V14.066H156.614V25.4608H162.576V28.2583H153.774ZM176.652 28.2583V24.5683H171.906V28.2583H169.065V18.1612L173.163 14.066H175.393L179.49 18.1612V28.2583H176.652ZM176.652 19.3376L174.279 16.9659L171.906 19.3376V21.7708H176.652V19.3376ZM187.299 28.2583V14.066H195.675L197.724 16.1144V20.1292L196.69 21.1621L197.724 22.1966V26.2083L195.675 28.2567L187.299 28.2583ZM194.885 17.2892L194.458 16.8634H190.138V19.8643H194.458L194.885 19.4385V17.2892ZM194.885 22.8857L194.458 22.4599H190.138V25.4608H194.458L194.885 25.035V22.8857ZM207.072 28.2583L205.025 26.2098V23.7798H207.864V25.0366L208.291 25.4624H212.184L212.61 25.0366V22.9882L212.184 22.5624H207.072L205.025 20.5156V16.116L207.072 14.0675H213.401L215.45 16.1144V18.5476H212.61V17.2892L212.184 16.8634H208.291L207.864 17.2892V19.3376L208.291 19.7634H213.401L215.45 21.8086V26.2083L213.401 28.2567L207.072 28.2583Z" fill="white"/>
</g>
<defs>
<clipPath id="clip0_1272_6884">
<rect width="217" height="41" fill="white" transform="translate(0 0.662109)"/>
</clipPath>
</defs>
</svg>
