<svg width="59" height="25" viewBox="0 0 59 25" fill="none" xmlns="http://www.w3.org/2000/svg">
<g clip-path="url(#clip0_1218_7316)">
<path d="M48.4319 24.2731V3.22496H41.4603V0.92334H58.2054V3.22496H51.2339V24.2731H48.4319Z" fill="#00D7CA"/>
<path d="M30.8723 24.2731V0.92334H33.6743V24.2731H30.8723Z" fill="#00D7CA"/>
<path d="M15.5115 13.9642C16.3788 13.9642 17.2377 13.7934 18.039 13.4615C18.8403 13.1296 19.5684 12.6431 20.1816 12.0298C20.7949 11.4165 21.2814 10.6884 21.6133 9.88712C21.9452 9.08582 22.1161 8.22699 22.1161 7.35967C22.1161 6.49235 21.9452 5.63352 21.6133 4.83222C21.2814 4.03092 20.7949 3.30284 20.1816 2.68955C19.5684 2.07626 18.8403 1.58978 18.039 1.25787C17.2377 0.925958 16.3788 0.755127 15.5115 0.755127L15.5115 3.6753C15.9954 3.6753 16.4745 3.7706 16.9215 3.95575C17.3685 4.14091 17.7746 4.4123 18.1168 4.75442C18.4589 5.09655 18.7303 5.50271 18.9154 5.94972C19.1006 6.39673 19.1959 6.87583 19.1959 7.35967C19.1959 7.84351 19.1006 8.32261 18.9154 8.76962C18.7303 9.21663 18.4589 9.62279 18.1168 9.96491C17.7746 10.307 17.3685 10.5784 16.9215 10.7636C16.4745 10.9487 15.9954 11.044 15.5115 11.044L15.5115 13.9642Z" fill="#00D7CA"/>
<path d="M15.5115 24.273C16.3788 24.273 17.2377 24.1022 18.039 23.7703C18.8403 23.4384 19.5684 22.9519 20.1816 22.3386C20.7949 21.7253 21.2814 20.9973 21.6133 20.196C21.9452 19.3947 22.1161 18.5358 22.1161 17.6685C22.1161 16.8012 21.9452 15.9424 21.6133 15.1411C21.2814 14.3398 20.7949 13.6117 20.1816 12.9984C19.5684 12.3851 18.8403 11.8986 18.039 11.5667C17.2377 11.2348 16.3788 11.064 15.5115 11.064L15.5115 13.9841C15.9954 13.9841 16.4745 14.0794 16.9215 14.2646C17.3685 14.4497 17.7746 14.7211 18.1168 15.0633C18.4589 15.4054 18.7303 15.8116 18.9154 16.2586C19.1006 16.7056 19.1959 17.1847 19.1959 17.6685C19.1959 18.1523 19.1006 18.6314 18.9154 19.0785C18.7303 19.5255 18.4589 19.9316 18.1168 20.2738C17.7746 20.6159 17.3685 20.8873 16.9215 21.0724C16.4745 21.2576 15.9954 21.3529 15.5115 21.3529L15.5115 24.273Z" fill="#00D7CA"/>
<rect y="0.755127" width="13.535" height="2.90035" fill="#00D7CA"/>
<path d="M13.3763 11.064H15.951V13.9643H13.3763V11.064Z" fill="#00D7CA"/>
<path d="M1.93335 11.064H11.6012V13.9643H1.93335V11.064Z" fill="#00D7CA"/>
<rect y="21.3726" width="13.535" height="2.90035" fill="#00D7CA"/>
</g>
<defs>
<clipPath id="clip0_1218_7316">
<rect width="58.2353" height="23.6277" fill="white" transform="translate(0 0.662109)"/>
</clipPath>
</defs>
</svg>
