<svg xmlns="http://www.w3.org/2000/svg" xmlns:xlink="http://www.w3.org/1999/xlink" viewBox="0 0 184 42"><path d="M 17.781 13.566 L 2.669 13.566 L 6.082 19.701 L 1.755 27.052 L 6.069 34.368 L 10.347 27.004 L 6.094 19.713 L 14.247 19.713 L 10.347 27.004 L 17.781 27.004 L 21.742 19.713 Z" fill="#FFFFFF" stroke-width="0.21" stroke="rgb(255,255,255)" stroke-miterlimit="10"></path><path d="M 27.485 30.118 L 27.485 13.812 L 29.872 13.812 L 29.872 15.482 L 30.25 15.482 C 30.55 14.965 30.999 14.502 31.597 14.094 C 32.212 13.686 33.086 13.482 34.221 13.482 C 35.198 13.482 36.088 13.718 36.892 14.188 C 37.711 14.659 38.365 15.341 38.853 16.235 C 39.358 17.114 39.61 18.18 39.61 19.435 L 39.61 19.788 C 39.61 21.043 39.365 22.118 38.877 23.012 C 38.389 23.89 37.735 24.565 36.915 25.035 C 36.096 25.506 35.198 25.741 34.221 25.741 C 33.465 25.741 32.826 25.647 32.306 25.459 C 31.786 25.271 31.369 25.035 31.054 24.753 C 30.739 24.455 30.487 24.149 30.297 23.835 L 29.919 23.835 L 29.919 30.118 Z M 33.512 23.624 C 34.583 23.624 35.458 23.286 36.135 22.612 C 36.813 21.937 37.152 20.973 37.152 19.718 L 37.152 19.506 C 37.152 18.267 36.805 17.31 36.112 16.635 C 35.434 15.961 34.567 15.624 33.512 15.624 C 32.472 15.624 31.605 15.961 30.912 16.635 C 30.234 17.31 29.896 18.267 29.896 19.506 L 29.896 19.718 C 29.896 20.973 30.234 21.937 30.912 22.612 C 31.605 23.286 32.472 23.624 33.512 23.624 Z M 43.055 25.412 L 41.07 13.812 L 43.504 13.812 L 44.969 23.788 L 45.347 23.788 L 47.38 13.812 L 51.327 13.812 L 53.336 23.788 L 53.714 23.788 L 55.18 13.812 L 57.614 13.812 L 55.629 25.412 L 51.54 25.412 L 49.531 15.459 L 49.153 15.459 L 47.144 25.412 Z M 59.788 25.412 L 59.788 13.812 L 62.176 13.812 L 62.176 15.176 L 62.554 15.176 C 62.743 14.69 63.042 14.337 63.452 14.118 C 63.877 13.882 64.397 13.765 65.012 13.765 L 66.406 13.765 L 66.406 15.953 L 64.917 15.953 C 64.129 15.953 63.483 16.173 62.979 16.612 C 62.475 17.035 62.223 17.694 62.223 18.588 L 62.223 25.412 Z M 78.947 25.741 C 77.828 25.741 76.812 25.506 75.898 25.035 C 75 24.565 74.283 23.882 73.747 22.988 C 73.227 22.094 72.967 21.02 72.967 19.765 L 72.967 19.459 C 72.967 18.204 73.227 17.137 73.747 16.259 C 74.283 15.365 75 14.682 75.898 14.212 C 76.812 13.726 77.828 13.482 78.947 13.482 C 80.066 13.482 81.019 13.686 81.807 14.094 C 82.595 14.502 83.225 15.043 83.698 15.718 C 84.186 16.392 84.501 17.137 84.643 17.953 L 82.28 18.447 C 82.201 17.929 82.035 17.459 81.783 17.035 C 81.531 16.612 81.177 16.274 80.72 16.024 C 80.263 15.773 79.688 15.647 78.994 15.647 C 78.317 15.647 77.702 15.804 77.151 16.118 C 76.615 16.416 76.19 16.855 75.875 17.435 C 75.559 18 75.402 18.69 75.402 19.506 L 75.402 19.718 C 75.402 20.533 75.559 21.231 75.875 21.812 C 76.19 22.392 76.615 22.831 77.151 23.129 C 77.702 23.427 78.317 23.576 78.994 23.576 C 80.019 23.576 80.799 23.318 81.334 22.8 C 81.87 22.267 82.209 21.592 82.351 20.776 L 84.714 21.318 C 84.525 22.118 84.186 22.855 83.698 23.529 C 83.225 24.204 82.595 24.745 81.807 25.153 C 81.019 25.545 80.066 25.741 78.947 25.741 Z M 86.813 25.412 L 86.813 8.941 L 89.247 8.941 L 89.247 15.459 L 89.625 15.459 C 89.783 15.161 90.004 14.871 90.287 14.588 C 90.587 14.306 90.973 14.078 91.445 13.906 C 91.934 13.718 92.548 13.624 93.289 13.624 C 94.172 13.624 94.952 13.82 95.629 14.212 C 96.322 14.604 96.866 15.161 97.259 15.882 C 97.653 16.588 97.85 17.443 97.85 18.447 L 97.85 25.412 L 95.416 25.412 L 95.416 18.635 C 95.416 17.631 95.164 16.894 94.66 16.424 C 94.155 15.937 93.462 15.694 92.58 15.694 C 91.571 15.694 90.76 16.024 90.145 16.682 C 89.547 17.341 89.247 18.298 89.247 19.553 L 89.247 25.412 Z M 104.261 25.741 C 103.426 25.741 102.678 25.6 102.016 25.318 C 101.37 25.035 100.85 24.62 100.456 24.071 C 100.078 23.522 99.889 22.855 99.889 22.071 C 99.889 21.271 100.078 20.612 100.456 20.094 C 100.85 19.561 101.378 19.161 102.04 18.894 C 102.717 18.627 103.481 18.494 104.332 18.494 L 107.878 18.494 L 107.878 17.741 C 107.878 17.067 107.672 16.526 107.263 16.118 C 106.853 15.71 106.223 15.506 105.372 15.506 C 104.537 15.506 103.899 15.702 103.458 16.094 C 103.016 16.486 102.725 16.996 102.583 17.624 L 100.314 16.894 C 100.503 16.267 100.802 15.702 101.212 15.2 C 101.638 14.682 102.197 14.267 102.891 13.953 C 103.583 13.639 104.419 13.482 105.396 13.482 C 106.909 13.482 108.097 13.867 108.965 14.635 C 109.831 15.404 110.265 16.494 110.265 17.906 L 110.265 22.682 C 110.265 23.153 110.485 23.388 110.927 23.388 L 111.919 23.388 L 111.919 25.412 L 110.099 25.412 C 109.547 25.412 109.098 25.271 108.752 24.988 C 108.405 24.706 108.232 24.322 108.232 23.835 L 108.232 23.765 L 107.878 23.765 C 107.751 24 107.562 24.274 107.31 24.588 C 107.057 24.902 106.688 25.176 106.199 25.412 C 105.71 25.631 105.065 25.741 104.261 25.741 Z M 104.616 23.741 C 105.592 23.741 106.38 23.467 106.979 22.918 C 107.577 22.353 107.878 21.584 107.878 20.612 L 107.878 20.376 L 104.474 20.376 C 103.828 20.376 103.308 20.518 102.914 20.8 C 102.52 21.067 102.323 21.467 102.323 22 C 102.323 22.533 102.528 22.957 102.938 23.271 C 103.347 23.584 103.907 23.741 104.616 23.741 Z M 113.577 25.412 L 113.577 13.812 L 116.012 13.812 L 116.012 25.412 Z M 114.806 12.235 C 114.334 12.235 113.932 12.086 113.601 11.788 C 113.285 11.474 113.128 11.074 113.128 10.588 C 113.128 10.102 113.285 9.71 113.601 9.412 C 113.932 9.098 114.334 8.941 114.806 8.941 C 115.294 8.941 115.696 9.098 116.012 9.412 C 116.326 9.71 116.484 10.102 116.484 10.588 C 116.484 11.074 116.326 11.474 116.012 11.788 C 115.696 12.086 115.294 12.235 114.806 12.235 Z M 118.915 25.412 L 118.915 13.812 L 121.302 13.812 L 121.302 15.553 L 121.681 15.553 C 121.902 15.082 122.295 14.643 122.862 14.235 C 123.43 13.827 124.272 13.624 125.391 13.624 C 126.274 13.624 127.054 13.82 127.731 14.212 C 128.425 14.604 128.968 15.161 129.362 15.882 C 129.756 16.588 129.953 17.443 129.953 18.447 L 129.953 25.412 L 127.518 25.412 L 127.518 18.635 C 127.518 17.631 127.267 16.894 126.762 16.424 C 126.257 15.937 125.565 15.694 124.682 15.694 C 123.674 15.694 122.862 16.024 122.248 16.682 C 121.649 17.341 121.35 18.298 121.35 19.553 L 121.35 25.412 Z" fill="#FFFFFF"></path></svg>