<?xml version="1.0" encoding="UTF-8"?>
<!DOCTYPE svg PUBLIC "-//W3C//DTD SVG 1.1//EN" "http://www.w3.org/Graphics/SVG/1.1/DTD/svg11.dtd">
<svg xmlns="http://www.w3.org/2000/svg" version="1.1" width="200px" height="200px" style="shape-rendering:geometricPrecision; text-rendering:geometricPrecision; image-rendering:optimizeQuality; fill-rule:evenodd; clip-rule:evenodd" xmlns:xlink="http://www.w3.org/1999/xlink">
<g><path style="opacity:1" fill="#26c2da" d="M -0.5,-0.5 C 66.1667,-0.5 132.833,-0.5 199.5,-0.5C 199.5,1.83333 199.5,4.16667 199.5,6.5C 132.833,6.5 66.1667,6.5 -0.5,6.5C -0.5,4.16667 -0.5,1.83333 -0.5,-0.5 Z"/></g>
<g><path style="opacity:1" fill="#27bdd7" d="M -0.5,6.5 C 66.1667,6.5 132.833,6.5 199.5,6.5C 199.5,9.16667 199.5,11.8333 199.5,14.5C 132.833,14.5 66.1667,14.5 -0.5,14.5C -0.5,11.8333 -0.5,9.16667 -0.5,6.5 Z"/></g>
<g><path style="opacity:1" fill="#28b8d5" d="M -0.5,14.5 C 66.1667,14.5 132.833,14.5 199.5,14.5C 199.5,17.5 199.5,20.5 199.5,23.5C 132.833,23.5 66.1667,23.5 -0.5,23.5C -0.5,20.5 -0.5,17.5 -0.5,14.5 Z"/></g>
<g><path style="opacity:1" fill="#2cb2d2" d="M -0.5,23.5 C 66.1667,23.5 132.833,23.5 199.5,23.5C 199.5,27.1667 199.5,30.8333 199.5,34.5C 174.661,34.169 149.994,34.5023 125.5,35.5C 107.013,28.5416 88.6801,28.8749 70.5,36.5C 47.0059,35.5024 23.3392,35.1691 -0.5,35.5C -0.5,31.5 -0.5,27.5 -0.5,23.5 Z"/></g>
<g><path style="opacity:1" fill="#fafcfd" d="M 125.5,35.5 C 132.109,38.795 138.443,42.4616 144.5,46.5C 150.806,52.476 156.139,59.1427 160.5,66.5C 161.93,70.3544 163.597,74.0211 165.5,77.5C 167.346,84.0379 168.346,90.7046 168.5,97.5C 168.927,105.053 167.927,112.386 165.5,119.5C 163.303,126.227 160.303,132.561 156.5,138.5C 150.431,146.904 143.098,153.904 134.5,159.5C 111.14,171.471 87.8068,171.471 64.5,159.5C 55.9024,153.904 48.5691,146.904 42.5,138.5C 38.6973,132.561 35.6973,126.227 33.5,119.5C 31.5198,112.328 30.5198,104.994 30.5,97.5C 30.6544,90.7046 31.6544,84.0379 33.5,77.5C 35.4031,74.0211 37.0698,70.3544 38.5,66.5C 42.8611,59.1427 48.1944,52.476 54.5,46.5C 59.5899,42.7365 64.9233,39.4032 70.5,36.5C 88.6801,28.8749 107.013,28.5416 125.5,35.5 Z"/></g>
<g><path style="opacity:1" fill="#2eabce" d="M -0.5,35.5 C 23.3392,35.1691 47.0059,35.5024 70.5,36.5C 64.9233,39.4032 59.5899,42.7365 54.5,46.5C 36.3409,45.5032 18.0076,45.1698 -0.5,45.5C -0.5,42.1667 -0.5,38.8333 -0.5,35.5 Z"/></g>
<g><path style="opacity:1" fill="#2fabce" d="M 125.5,35.5 C 149.994,34.5023 174.661,34.169 199.5,34.5C 199.5,38.1667 199.5,41.8333 199.5,45.5C 180.992,45.1698 162.659,45.5032 144.5,46.5C 138.443,42.4616 132.109,38.795 125.5,35.5 Z"/></g>
<g><path style="opacity:1" fill="#31a3ca" d="M -0.5,45.5 C 18.0076,45.1698 36.3409,45.5032 54.5,46.5C 48.1944,52.476 42.8611,59.1427 38.5,66.5C 25.6774,65.5045 12.6774,65.1712 -0.5,65.5C -0.5,58.8333 -0.5,52.1667 -0.5,45.5 Z"/></g>
<g><path style="opacity:1" fill="#39a7cc" d="M 146.5,59.5 C 142.298,59.1832 138.298,59.5166 134.5,60.5C 119.15,48.5707 103.816,48.5707 88.5,60.5C 84.7016,59.5166 80.7016,59.1832 76.5,59.5C 90.5023,44.1165 107.502,39.6165 127.5,46C 134.956,49.0487 141.289,53.5487 146.5,59.5 Z"/></g>
<g><path style="opacity:1" fill="#31a3ca" d="M 199.5,45.5 C 199.5,52.1667 199.5,58.8333 199.5,65.5C 186.323,65.1712 173.323,65.5045 160.5,66.5C 156.139,59.1427 150.806,52.476 144.5,46.5C 162.659,45.5032 180.992,45.1698 199.5,45.5 Z"/></g>
<g><path style="opacity:1" fill="#3599c5" d="M -0.5,65.5 C 12.6774,65.1712 25.6774,65.5045 38.5,66.5C 37.0698,70.3544 35.4031,74.0211 33.5,77.5C 22.3456,76.5052 11.0123,76.1719 -0.5,76.5C -0.5,72.8333 -0.5,69.1667 -0.5,65.5 Z"/></g>
<g><path style="opacity:1" fill="#3f9fc8" d="M 51.5,76.5 C 48.8333,76.5 46.1667,76.5 43.5,76.5C 48.6177,62.225 57.9511,52.0584 71.5,46C 62.4222,54.6744 55.7555,64.8411 51.5,76.5 Z"/></g>
<g><path style="opacity:1" fill="#389ac6" d="M 114.5,76.5 C 104.833,76.5 95.1667,76.5 85.5,76.5C 88.5345,69.9654 93.3678,65.2988 100,62.5C 105.146,64.63 109.479,67.9634 113,72.5C 113.791,73.745 114.291,75.0783 114.5,76.5 Z"/></g>
<g><path style="opacity:1" fill="#3599c5" d="M 199.5,65.5 C 199.5,69.1667 199.5,72.8333 199.5,76.5C 187.988,76.1719 176.654,76.5052 165.5,77.5C 163.597,74.0211 161.93,70.3544 160.5,66.5C 173.323,65.5045 186.323,65.1712 199.5,65.5 Z"/></g>
<g><path style="opacity:1" fill="#3f97c4" d="M 76.5,59.5 C 80.7016,59.1832 84.7016,59.5166 88.5,60.5C 79.2061,69.0802 73.5394,79.7468 71.5,92.5C 68.5,92.5 65.5,92.5 62.5,92.5C 62.5,96.8333 62.5,101.167 62.5,105.5C 60.4622,88.2694 65.1288,72.9361 76.5,59.5 Z"/></g>
<g><path style="opacity:1" fill="#4296c4" d="M 137.5,105.5 C 137.5,101.167 137.5,96.8333 137.5,92.5C 134.5,92.5 131.5,92.5 128.5,92.5C 126.777,82.9956 123.111,74.3289 117.5,66.5C 117.667,66.1667 117.833,65.8333 118,65.5C 133.929,74.3553 140.429,87.6886 137.5,105.5 Z"/></g>
<g><path style="opacity:1" fill="#4197c4" d="M 134.5,60.5 C 138.298,59.5166 142.298,59.1832 146.5,59.5C 158.739,73.7056 163.405,90.0389 160.5,108.5C 160.5,103.167 160.5,97.8333 160.5,92.5C 157.5,92.5 154.5,92.5 151.5,92.5C 149.48,79.7872 143.813,69.1205 134.5,60.5 Z"/></g>
<g><path style="opacity:1" fill="#4695c3" d="M 43.5,76.5 C 46.1667,76.5 48.8333,76.5 51.5,76.5C 50.8164,81.8996 49.8164,87.2329 48.5,92.5C 45.5,92.5 42.5,92.5 39.5,92.5C 39.5,96.5 39.5,100.5 39.5,104.5C 37.5821,94.7449 38.9154,85.4116 43.5,76.5 Z"/></g>
<g><path style="opacity:1" fill="#388dbf" d="M -0.5,76.5 C 11.0123,76.1719 22.3456,76.5052 33.5,77.5C 31.6544,84.0379 30.6544,90.7046 30.5,97.5C 20.1667,97.5 9.83333,97.5 -0.5,97.5C -0.5,90.5 -0.5,83.5 -0.5,76.5 Z"/></g>
<g><path style="opacity:1" fill="#3a8ebf" d="M 85.5,76.5 C 95.1667,76.5 104.833,76.5 114.5,76.5C 119.117,82.6149 121.117,89.6149 120.5,97.5C 106.833,97.5 93.1667,97.5 79.5,97.5C 78.8835,89.6149 80.8835,82.6149 85.5,76.5 Z"/></g>
<g><path style="opacity:1" fill="#388dbf" d="M 199.5,76.5 C 199.5,83.5 199.5,90.5 199.5,97.5C 189.167,97.5 178.833,97.5 168.5,97.5C 168.346,90.7046 167.346,84.0379 165.5,77.5C 176.654,76.5052 187.988,76.1719 199.5,76.5 Z"/></g>
<g><path style="opacity:1" fill="#3e87bc" d="M 48.5,92.5 C 48.3407,99.5904 49.0074,106.59 50.5,113.5C 47.1667,113.5 43.8333,113.5 40.5,113.5C 39.5975,110.609 39.2641,107.609 39.5,104.5C 39.5,100.5 39.5,96.5 39.5,92.5C 42.5,92.5 45.5,92.5 48.5,92.5 Z"/></g>
<g><path style="opacity:1" fill="#4384ba" d="M 71.5,92.5 C 70.6008,106.965 74.2675,120.132 82.5,132C 77.6648,130.876 73.4981,128.376 70,124.5C 65.8238,118.8 63.3238,112.467 62.5,105.5C 62.5,101.167 62.5,96.8333 62.5,92.5C 65.5,92.5 68.5,92.5 71.5,92.5 Z"/></g>
<g><path style="opacity:1" fill="#3d82b9" d="M 79.5,97.5 C 93.1667,97.5 106.833,97.5 120.5,97.5C 121.193,105.018 119.859,112.018 116.5,118.5C 105.5,118.5 94.5,118.5 83.5,118.5C 80.0318,112.033 78.6985,105.033 79.5,97.5 Z"/></g>
<g><path style="opacity:1" fill="#3e81b9" d="M -0.5,97.5 C 9.83333,97.5 20.1667,97.5 30.5,97.5C 30.5198,104.994 31.5198,112.328 33.5,119.5C 22.2476,118.523 10.9143,118.189 -0.5,118.5C -0.5,111.5 -0.5,104.5 -0.5,97.5 Z"/></g>
<g><path style="opacity:1" fill="#3d81b9" d="M 168.5,97.5 C 178.833,97.5 189.167,97.5 199.5,97.5C 199.5,104.5 199.5,111.5 199.5,118.5C 188.086,118.189 176.752,118.523 165.5,119.5C 167.927,112.386 168.927,105.053 168.5,97.5 Z"/></g>
<g><path style="opacity:1" fill="#4082b9" d="M 128.5,92.5 C 131.5,92.5 134.5,92.5 137.5,92.5C 137.5,96.8333 137.5,101.167 137.5,105.5C 137.232,112.288 135.565,118.621 132.5,124.5C 130.012,122.612 127.012,121.945 123.5,122.5C 127.393,112.926 129.059,102.926 128.5,92.5 Z"/></g>
<g><path style="opacity:1" fill="#4381b9" d="M 151.5,92.5 C 154.5,92.5 157.5,92.5 160.5,92.5C 160.5,97.8333 160.5,103.167 160.5,108.5C 159.197,116.415 156.531,123.749 152.5,130.5C 150.721,128.656 148.388,127.99 145.5,128.5C 150.052,116.952 152.052,104.952 151.5,92.5 Z"/></g>
<g><path style="opacity:1" fill="#467bb6" d="M 40.5,113.5 C 43.8333,113.5 47.1667,113.5 50.5,113.5C 53.2099,123.261 58.2099,131.594 65.5,138.5C 61.6286,138.185 57.9619,138.518 54.5,139.5C 47.2505,132.341 42.5839,123.675 40.5,113.5 Z"/></g>
<g><path style="opacity:1" fill="#447ab5" d="M 83.5,118.5 C 94.5,118.5 105.5,118.5 116.5,118.5C 113.579,127.088 107.912,133.088 99.5,136.5C 91.6974,132.697 86.3641,126.697 83.5,118.5 Z"/></g>
<g><path style="opacity:1" fill="#4275b3" d="M -0.5,118.5 C 10.9143,118.189 22.2476,118.523 33.5,119.5C 35.6973,126.227 38.6973,132.561 42.5,138.5C 28.1667,138.5 13.8333,138.5 -0.5,138.5C -0.5,131.833 -0.5,125.167 -0.5,118.5 Z"/></g>
<g><path style="opacity:1" fill="#4275b3" d="M 199.5,118.5 C 199.5,125.167 199.5,131.833 199.5,138.5C 185.167,138.5 170.833,138.5 156.5,138.5C 160.303,132.561 163.303,126.227 165.5,119.5C 176.752,118.523 188.086,118.189 199.5,118.5 Z"/></g>
<g><path style="opacity:1" fill="#4d76b3" d="M 145.5,128.5 C 148.388,127.99 150.721,128.656 152.5,130.5C 147.227,140.429 139.56,147.596 129.5,152C 136.451,145.264 141.784,137.431 145.5,128.5 Z"/></g>
<g><path style="opacity:1" fill="#4669ac" d="M -0.5,138.5 C 13.8333,138.5 28.1667,138.5 42.5,138.5C 48.5691,146.904 55.9024,153.904 64.5,159.5C 42.8333,159.5 21.1667,159.5 -0.5,159.5C -0.5,152.5 -0.5,145.5 -0.5,138.5 Z"/></g>
<g><path style="opacity:1" fill="#496eaf" d="M 123.5,122.5 C 127.012,121.945 130.012,122.612 132.5,124.5C 120.406,149.546 100.74,159.046 73.5,153C 65.8734,150.19 59.5401,145.69 54.5,139.5C 57.9619,138.518 61.6286,138.185 65.5,138.5C 84.9164,151.036 102.416,148.702 118,131.5C 119.844,128.472 121.678,125.472 123.5,122.5 Z"/></g>
<g><path style="opacity:1" fill="#4669ac" d="M 156.5,138.5 C 170.833,138.5 185.167,138.5 199.5,138.5C 199.5,145.5 199.5,152.5 199.5,159.5C 177.833,159.5 156.167,159.5 134.5,159.5C 143.098,153.904 150.431,146.904 156.5,138.5 Z"/></g>
<g><path style="opacity:1" fill="#4a60a8" d="M -0.5,159.5 C 21.1667,159.5 42.8333,159.5 64.5,159.5C 87.8068,171.471 111.14,171.471 134.5,159.5C 156.167,159.5 177.833,159.5 199.5,159.5C 199.5,162.833 199.5,166.167 199.5,169.5C 132.833,169.5 66.1667,169.5 -0.5,169.5C -0.5,166.167 -0.5,162.833 -0.5,159.5 Z"/></g>
<g><path style="opacity:1" fill="#4b5aa5" d="M -0.5,169.5 C 66.1667,169.5 132.833,169.5 199.5,169.5C 199.5,173.167 199.5,176.833 199.5,180.5C 132.833,180.5 66.1667,180.5 -0.5,180.5C -0.5,176.833 -0.5,173.167 -0.5,169.5 Z"/></g>
<g><path style="opacity:1" fill="#4d54a2" d="M -0.5,180.5 C 66.1667,180.5 132.833,180.5 199.5,180.5C 199.5,183.5 199.5,186.5 199.5,189.5C 132.833,189.5 66.1667,189.5 -0.5,189.5C -0.5,186.5 -0.5,183.5 -0.5,180.5 Z"/></g>
<g><path style="opacity:1" fill="#4f4e9f" d="M -0.5,189.5 C 66.1667,189.5 132.833,189.5 199.5,189.5C 199.5,192.833 199.5,196.167 199.5,199.5C 132.833,199.5 66.1667,199.5 -0.5,199.5C -0.5,196.167 -0.5,192.833 -0.5,189.5 Z"/></g>
</svg>
